<svg width="157" height="137" fill="none" xmlns="http://www.w3.org/2000/svg"><g opacity=".8" clip-path="url('#clip0_2234_8808')" fill="#fff"><path d="M5.336 40.264c0 1.52-1.144 2.66-2.668 2.66-1.525 0-2.668-1.14-2.668-2.66 0-1.519 1.143-2.659 2.668-2.659 1.524 0 2.668 1.267 2.668 2.66ZM28.075 40.264c0 1.52-1.143 2.66-2.668 2.66-1.524 0-2.667-1.14-2.667-2.66 0-1.519 1.143-2.659 2.668-2.659 1.397 0 2.667 1.267 2.667 2.66ZM50.688 40.264c0 1.52-1.143 2.66-2.668 2.66-1.524 0-2.668-1.14-2.668-2.66 0-1.519 1.144-2.659 2.668-2.659 1.525 0 2.668 1.267 2.668 2.66ZM73.428 40.264c0 1.52-1.144 2.66-2.668 2.66-1.524 0-2.668-1.14-2.668-2.66 0-1.519 1.144-2.659 2.668-2.659 1.524 0 2.668 1.267 2.668 2.66ZM96.168 40.264c0 1.52-1.144 2.66-2.668 2.66-1.525 0-2.668-1.14-2.668-2.66 0-1.519 1.143-2.659 2.668-2.659 1.397 0 2.668 1.267 2.668 2.66ZM118.908 40.264c0 1.52-1.143 2.66-2.668 2.66-1.524 0-2.668-1.14-2.668-2.66 0-1.519 1.144-2.659 2.668-2.659 1.525 0 2.668 1.267 2.668 2.66ZM141.52 40.264c0 1.52-1.143 2.66-2.668 2.66-1.524 0-2.667-1.14-2.667-2.66 0-1.519 1.143-2.659 2.667-2.659 1.525 0 2.668 1.267 2.668 2.66ZM5.336 59.13c0 1.52-1.144 2.66-2.668 2.66C1.143 61.79 0 60.65 0 59.13c0-1.519 1.143-2.658 2.668-2.658 1.524 0 2.668 1.14 2.668 2.659ZM28.075 59.13c0 1.52-1.143 2.66-2.668 2.66-1.524 0-2.667-1.14-2.667-2.66 0-1.519 1.143-2.658 2.668-2.658 1.397 0 2.667 1.14 2.667 2.659ZM50.688 59.13c0 1.52-1.143 2.66-2.668 2.66-1.524 0-2.668-1.14-2.668-2.66 0-1.519 1.144-2.658 2.668-2.658 1.525 0 2.668 1.14 2.668 2.659ZM73.428 59.13c0 1.52-1.144 2.66-2.668 2.66-1.524 0-2.668-1.14-2.668-2.66 0-1.519 1.144-2.658 2.668-2.658 1.524 0 2.668 1.14 2.668 2.659ZM96.168 59.13c0 1.52-1.144 2.66-2.668 2.66-1.525 0-2.668-1.14-2.668-2.66 0-1.519 1.143-2.658 2.668-2.658 1.397 0 2.668 1.14 2.668 2.659ZM118.908 59.13c0 1.52-1.143 2.66-2.668 2.66-1.524 0-2.668-1.14-2.668-2.66 0-1.519 1.144-2.658 2.668-2.658 1.525 0 2.668 1.14 2.668 2.659ZM141.52 59.13c0 1.52-1.143 2.66-2.668 2.66-1.524 0-2.667-1.14-2.667-2.66 0-1.519 1.143-2.658 2.667-2.658 1.525 0 2.668 1.14 2.668 2.659ZM5.336 2.659c0 1.52-1.144 2.659-2.668 2.659C1.143 5.318 0 4.178 0 2.659 0 1.139 1.143 0 2.668 0c1.524 0 2.668 1.14 2.668 2.659ZM28.075 2.659c0 1.52-1.143 2.659-2.668 2.659-1.524 0-2.667-1.14-2.667-2.659C22.74 1.139 23.883 0 25.408 0c1.397 0 2.667 1.14 2.667 2.659ZM50.688 2.659c0 1.52-1.143 2.659-2.668 2.659-1.524 0-2.668-1.14-2.668-2.659 0-1.52 1.27-2.659 2.668-2.659 1.525 0 2.668 1.14 2.668 2.659ZM73.428 2.659c0 1.52-1.144 2.659-2.668 2.659-1.524 0-2.668-1.14-2.668-2.659 0-1.52 1.27-2.659 2.668-2.659 1.397 0 2.668 1.14 2.668 2.659ZM96.168 2.659c0 1.52-1.144 2.659-2.668 2.659-1.525 0-2.668-1.14-2.668-2.659C90.832 1.139 91.975 0 93.5 0c1.397 0 2.668 1.14 2.668 2.659ZM118.908 2.659c0 1.52-1.143 2.659-2.668 2.659-1.524 0-2.668-1.14-2.668-2.659 0-1.52 1.144-2.659 2.668-2.659 1.525 0 2.668 1.14 2.668 2.659ZM141.52 2.659c0 1.52-1.143 2.659-2.668 2.659-1.524 0-2.667-1.14-2.667-2.659 0-1.52 1.143-2.659 2.667-2.659 1.525 0 2.668 1.14 2.668 2.659ZM5.336 21.525c0 1.52-1.144 2.66-2.668 2.66-1.525 0-2.668-1.267-2.668-2.66 0-1.52 1.143-2.659 2.668-2.659 1.524 0 2.668 1.14 2.668 2.66ZM28.075 21.525c0 1.52-1.143 2.66-2.668 2.66-1.524 0-2.667-1.14-2.667-2.66 0-1.52 1.143-2.659 2.668-2.659 1.397 0 2.667 1.14 2.667 2.66ZM50.688 21.525c0 1.52-1.143 2.66-2.668 2.66-1.524 0-2.668-1.14-2.668-2.66 0-1.52 1.144-2.659 2.668-2.659 1.525 0 2.668 1.14 2.668 2.66ZM73.428 21.525c0 1.52-1.144 2.66-2.668 2.66-1.524 0-2.668-1.14-2.668-2.66 0-1.52 1.144-2.659 2.668-2.659 1.524 0 2.668 1.14 2.668 2.66ZM96.168 21.525c0 1.52-1.144 2.66-2.668 2.66-1.525 0-2.668-1.14-2.668-2.66 0-1.52 1.143-2.659 2.668-2.659 1.397 0 2.668 1.14 2.668 2.66ZM118.908 21.525c0 1.52-1.143 2.66-2.668 2.66-1.524 0-2.668-1.14-2.668-2.66 0-1.52 1.144-2.659 2.668-2.659 1.525 0 2.668 1.14 2.668 2.66ZM141.52 21.525c0 1.52-1.143 2.66-2.668 2.66-1.524 0-2.667-1.14-2.667-2.66 0-1.52 1.143-2.659 2.667-2.659 1.525 0 2.668 1.14 2.668 2.66ZM5.336 77.87c0 1.52-1.144 2.659-2.668 2.659-1.525 0-2.668-1.14-2.668-2.66 0-1.519 1.143-2.658 2.668-2.658 1.524 0 2.668 1.266 2.668 2.659ZM28.075 77.87c0 1.52-1.143 2.659-2.668 2.659-1.524 0-2.667-1.14-2.667-2.66 0-1.519 1.143-2.658 2.668-2.658 1.397 0 2.667 1.266 2.667 2.659ZM50.688 77.87c0 1.52-1.143 2.659-2.668 2.659-1.524 0-2.668-1.14-2.668-2.66 0-1.519 1.144-2.658 2.668-2.658 1.525 0 2.668 1.266 2.668 2.659ZM73.428 77.87c0 1.52-1.144 2.659-2.668 2.659-1.524 0-2.668-1.14-2.668-2.66 0-1.519 1.144-2.658 2.668-2.658 1.524 0 2.668 1.266 2.668 2.659ZM96.168 77.87c0 1.52-1.144 2.659-2.668 2.659-1.525 0-2.668-1.14-2.668-2.66 0-1.519 1.143-2.658 2.668-2.658 1.397 0 2.668 1.266 2.668 2.659ZM118.908 77.87c0 1.52-1.143 2.659-2.668 2.659-1.524 0-2.668-1.14-2.668-2.66 0-1.519 1.144-2.658 2.668-2.658 1.525 0 2.668 1.266 2.668 2.659ZM141.52 77.87c0 1.52-1.143 2.659-2.668 2.659-1.524 0-2.667-1.14-2.667-2.66 0-1.519 1.143-2.658 2.667-2.658 1.525 0 2.668 1.266 2.668 2.659ZM5.336 96.736c0 1.52-1.144 2.66-2.668 2.66-1.525 0-2.668-1.14-2.668-2.66 0-1.52 1.143-2.659 2.668-2.659 1.524 0 2.668 1.14 2.668 2.66ZM28.075 96.736c0 1.52-1.143 2.66-2.668 2.66-1.524 0-2.667-1.14-2.667-2.66 0-1.52 1.143-2.659 2.668-2.659 1.397 0 2.667 1.14 2.667 2.66ZM50.688 96.736c0 1.52-1.143 2.66-2.668 2.66-1.524 0-2.668-1.14-2.668-2.66 0-1.52 1.144-2.659 2.668-2.659 1.525 0 2.668 1.14 2.668 2.66ZM70.76 99.395a2.663 2.663 0 0 0 2.668-2.659 2.663 2.663 0 0 0-2.668-2.659 2.663 2.663 0 0 0-2.668 2.66 2.663 2.663 0 0 0 2.668 2.658ZM96.168 96.736c0 1.52-1.144 2.66-2.668 2.66-1.525 0-2.668-1.14-2.668-2.66 0-1.52 1.143-2.659 2.668-2.659 1.397 0 2.668 1.14 2.668 2.66ZM118.908 96.736c0 1.52-1.143 2.66-2.668 2.66-1.524 0-2.668-1.14-2.668-2.66 0-1.52 1.144-2.659 2.668-2.659 1.525 0 2.668 1.14 2.668 2.66ZM141.52 96.736c0 1.52-1.143 2.66-2.668 2.66-1.524 0-2.667-1.14-2.667-2.66 0-1.52 1.143-2.659 2.667-2.659 1.525 0 2.668 1.14 2.668 2.66ZM5.336 115.601c0 1.52-1.144 2.659-2.668 2.659-1.525 0-2.668-1.139-2.668-2.659 0-1.519 1.143-2.659 2.668-2.659 1.524 0 2.668 1.14 2.668 2.659ZM28.075 115.601c0 1.52-1.143 2.659-2.668 2.659-1.524 0-2.667-1.139-2.667-2.659 0-1.519 1.143-2.659 2.668-2.659 1.397 0 2.667 1.14 2.667 2.659ZM50.688 115.601c0 1.52-1.143 2.659-2.668 2.659-1.524 0-2.668-1.139-2.668-2.659 0-1.519 1.144-2.659 2.668-2.659 1.525 0 2.668 1.14 2.668 2.659ZM73.428 115.601c0 1.52-1.144 2.659-2.668 2.659-1.524 0-2.668-1.139-2.668-2.659 0-1.519 1.144-2.659 2.668-2.659 1.524 0 2.668 1.14 2.668 2.659ZM96.168 115.601c0 1.52-1.144 2.659-2.668 2.659-1.525 0-2.668-1.139-2.668-2.659 0-1.519 1.143-2.659 2.668-2.659 1.397 0 2.668 1.14 2.668 2.659ZM118.908 115.601c0 1.52-1.143 2.659-2.668 2.659-1.524 0-2.668-1.139-2.668-2.659 0-1.519 1.144-2.659 2.668-2.659 1.525 0 2.668 1.14 2.668 2.659ZM141.52 115.601c0 1.52-1.143 2.659-2.668 2.659-1.524 0-2.667-1.139-2.667-2.659 0-1.519 1.143-2.659 2.667-2.659 1.525 0 2.668 1.14 2.668 2.659ZM5.336 134.341c0 1.519-1.144 2.659-2.668 2.659C1.143 137 0 135.86 0 134.341c0-1.52 1.143-2.659 2.668-2.659 1.524 0 2.668 1.266 2.668 2.659ZM28.075 134.341c0 1.519-1.143 2.659-2.668 2.659-1.524 0-2.667-1.14-2.667-2.659 0-1.52 1.143-2.659 2.668-2.659 1.397 0 2.667 1.266 2.667 2.659ZM50.688 134.341c0 1.519-1.143 2.659-2.668 2.659-1.524 0-2.668-1.14-2.668-2.659 0-1.52 1.144-2.659 2.668-2.659 1.525 0 2.668 1.266 2.668 2.659ZM73.428 134.341c0 1.519-1.144 2.659-2.668 2.659-1.524 0-2.668-1.14-2.668-2.659 0-1.52 1.144-2.659 2.668-2.659 1.524 0 2.668 1.266 2.668 2.659ZM96.168 134.341c0 1.519-1.144 2.659-2.668 2.659-1.525 0-2.668-1.14-2.668-2.659 0-1.52 1.143-2.659 2.668-2.659 1.397 0 2.668 1.266 2.668 2.659ZM118.908 134.341c0 1.519-1.143 2.659-2.668 2.659-1.524 0-2.668-1.14-2.668-2.659 0-1.52 1.144-2.659 2.668-2.659 1.525 0 2.668 1.266 2.668 2.659ZM141.52 134.341c0 1.519-1.143 2.659-2.668 2.659-1.524 0-2.667-1.14-2.667-2.659 0-1.52 1.143-2.659 2.667-2.659 1.525 0 2.668 1.266 2.668 2.659Z"/></g><defs><clipPath id="clip0_2234_8808"><path fill="#fff" d="M0 0h187v137H0z"/></clipPath></defs></svg>