<svg width="157" height="137" fill="none" xmlns="http://www.w3.org/2000/svg"><g id="dots" opacity=".8" clip-path="url('#clip0_2320_3687')"><g id="Group" fill="#fff"><path id="Vector" d="M5.336 40.264c0 1.52-1.144 2.66-2.668 2.66-1.525 0-2.668-1.14-2.668-2.66 0-1.519 1.143-2.659 2.668-2.659 1.524 0 2.668 1.267 2.668 2.66Z"/><path id="Vector_2" d="M28.076 40.264c0 1.52-1.144 2.66-2.668 2.66-1.525 0-2.668-1.14-2.668-2.66 0-1.519 1.143-2.659 2.668-2.659 1.397 0 2.668 1.267 2.668 2.66Z"/><path id="Vector_3" d="M50.688 40.264c0 1.52-1.143 2.66-2.668 2.66-1.524 0-2.668-1.14-2.668-2.66 0-1.519 1.144-2.659 2.668-2.659 1.525 0 2.668 1.267 2.668 2.66Z"/><path id="Vector_4" d="M73.428 40.264c0 1.52-1.144 2.66-2.668 2.66-1.524 0-2.668-1.14-2.668-2.66 0-1.519 1.144-2.659 2.668-2.659 1.524 0 2.668 1.267 2.668 2.66Z"/><path id="Vector_5" d="M96.168 40.264c0 1.52-1.144 2.66-2.668 2.66-1.525 0-2.668-1.14-2.668-2.66 0-1.519 1.144-2.659 2.668-2.659 1.397 0 2.668 1.267 2.668 2.66Z"/><path id="Vector_6" d="M118.908 40.264c0 1.52-1.144 2.66-2.668 2.66-1.525 0-2.668-1.14-2.668-2.66 0-1.519 1.143-2.659 2.668-2.659 1.524 0 2.668 1.267 2.668 2.66Z"/><path id="Vector_7" d="M141.52 40.264c0 1.52-1.143 2.66-2.668 2.66-1.524 0-2.667-1.14-2.667-2.66 0-1.519 1.143-2.659 2.667-2.659 1.525 0 2.668 1.267 2.668 2.66Z"/><path id="Vector_8" d="M5.336 59.13c0 1.52-1.144 2.66-2.668 2.66C1.143 61.79 0 60.65 0 59.13c0-1.519 1.143-2.658 2.668-2.658 1.524 0 2.668 1.14 2.668 2.659Z"/><path id="Vector_9" d="M28.076 59.13c0 1.52-1.144 2.66-2.668 2.66-1.525 0-2.668-1.14-2.668-2.66 0-1.519 1.143-2.658 2.668-2.658 1.397 0 2.668 1.14 2.668 2.659Z"/><path id="Vector_10" d="M50.688 59.13c0 1.52-1.143 2.66-2.668 2.66-1.524 0-2.668-1.14-2.668-2.66 0-1.519 1.144-2.658 2.668-2.658 1.525 0 2.668 1.14 2.668 2.659Z"/><path id="Vector_11" d="M73.428 59.13c0 1.52-1.144 2.66-2.668 2.66-1.524 0-2.668-1.14-2.668-2.66 0-1.519 1.144-2.658 2.668-2.658 1.524 0 2.668 1.14 2.668 2.659Z"/><path id="Vector_12" d="M96.168 59.13c0 1.52-1.144 2.66-2.668 2.66-1.525 0-2.668-1.14-2.668-2.66 0-1.519 1.144-2.658 2.668-2.658 1.397 0 2.668 1.14 2.668 2.659Z"/><path id="Vector_13" d="M118.908 59.13c0 1.52-1.144 2.66-2.668 2.66-1.525 0-2.668-1.14-2.668-2.66 0-1.519 1.143-2.658 2.668-2.658 1.524 0 2.668 1.14 2.668 2.659Z"/><path id="Vector_14" d="M141.52 59.13c0 1.52-1.143 2.66-2.668 2.66-1.524 0-2.667-1.14-2.667-2.66 0-1.519 1.143-2.658 2.667-2.658 1.525 0 2.668 1.14 2.668 2.659Z"/><path id="Vector_15" d="M5.336 2.659c0 1.52-1.144 2.659-2.668 2.659C1.143 5.318 0 4.178 0 2.659 0 1.139 1.143 0 2.668 0c1.524 0 2.668 1.14 2.668 2.659Z"/><path id="Vector_16" d="M28.076 2.659c0 1.52-1.144 2.659-2.668 2.659-1.525 0-2.668-1.14-2.668-2.659C22.74 1.139 23.883 0 25.408 0c1.397 0 2.668 1.14 2.668 2.659Z"/><path id="Vector_17" d="M50.688 2.659c0 1.52-1.143 2.659-2.668 2.659-1.524 0-2.668-1.14-2.668-2.659 0-1.52 1.27-2.659 2.668-2.659 1.525 0 2.668 1.14 2.668 2.659Z"/><path id="Vector_18" d="M73.428 2.659c0 1.52-1.144 2.659-2.668 2.659-1.524 0-2.668-1.14-2.668-2.659 0-1.52 1.27-2.659 2.668-2.659 1.397 0 2.668 1.14 2.668 2.659Z"/><path id="Vector_19" d="M96.168 2.659c0 1.52-1.144 2.659-2.668 2.659-1.525 0-2.668-1.14-2.668-2.659C90.832 1.139 91.976 0 93.5 0c1.397 0 2.668 1.14 2.668 2.659Z"/><path id="Vector_20" d="M118.908 2.659c0 1.52-1.144 2.659-2.668 2.659-1.525 0-2.668-1.14-2.668-2.659 0-1.52 1.143-2.659 2.668-2.659 1.524 0 2.668 1.14 2.668 2.659Z"/><path id="Vector_21" d="M141.52 2.659c0 1.52-1.143 2.659-2.668 2.659-1.524 0-2.667-1.14-2.667-2.659 0-1.52 1.143-2.659 2.667-2.659 1.525 0 2.668 1.14 2.668 2.659Z"/><path id="Vector_22" d="M5.336 21.525c0 1.52-1.144 2.66-2.668 2.66-1.525 0-2.668-1.267-2.668-2.66 0-1.52 1.143-2.659 2.668-2.659 1.524 0 2.668 1.14 2.668 2.66Z"/><path id="Vector_23" d="M28.076 21.525c0 1.52-1.144 2.66-2.668 2.66-1.525 0-2.668-1.14-2.668-2.66 0-1.52 1.143-2.659 2.668-2.659 1.397 0 2.668 1.14 2.668 2.66Z"/><path id="Vector_24" d="M50.688 21.525c0 1.52-1.143 2.66-2.668 2.66-1.524 0-2.668-1.14-2.668-2.66 0-1.52 1.144-2.659 2.668-2.659 1.525 0 2.668 1.14 2.668 2.66Z"/><path id="Vector_25" d="M73.428 21.525c0 1.52-1.144 2.66-2.668 2.66-1.524 0-2.668-1.14-2.668-2.66 0-1.52 1.144-2.659 2.668-2.659 1.524 0 2.668 1.14 2.668 2.66Z"/><path id="Vector_26" d="M96.168 21.525c0 1.52-1.144 2.66-2.668 2.66-1.525 0-2.668-1.14-2.668-2.66 0-1.52 1.144-2.659 2.668-2.659 1.397 0 2.668 1.14 2.668 2.66Z"/><path id="Vector_27" d="M118.908 21.525c0 1.52-1.144 2.66-2.668 2.66-1.525 0-2.668-1.14-2.668-2.66 0-1.52 1.143-2.659 2.668-2.659 1.524 0 2.668 1.14 2.668 2.66Z"/><path id="Vector_28" d="M141.52 21.525c0 1.52-1.143 2.66-2.668 2.66-1.524 0-2.667-1.14-2.667-2.66 0-1.52 1.143-2.659 2.667-2.659 1.525 0 2.668 1.14 2.668 2.66Z"/><path id="Vector_29" d="M5.336 77.87c0 1.52-1.144 2.659-2.668 2.659-1.525 0-2.668-1.14-2.668-2.66 0-1.519 1.143-2.658 2.668-2.658 1.524 0 2.668 1.266 2.668 2.659Z"/><path id="Vector_30" d="M28.076 77.87c0 1.52-1.144 2.659-2.668 2.659-1.525 0-2.668-1.14-2.668-2.66 0-1.519 1.143-2.658 2.668-2.658 1.397 0 2.668 1.266 2.668 2.659Z"/><path id="Vector_31" d="M50.688 77.87c0 1.52-1.143 2.659-2.668 2.659-1.524 0-2.668-1.14-2.668-2.66 0-1.519 1.144-2.658 2.668-2.658 1.525 0 2.668 1.266 2.668 2.659Z"/><path id="Vector_32" d="M73.428 77.87c0 1.52-1.144 2.659-2.668 2.659-1.524 0-2.668-1.14-2.668-2.66 0-1.519 1.144-2.658 2.668-2.658 1.524 0 2.668 1.266 2.668 2.659Z"/><path id="Vector_33" d="M96.168 77.87c0 1.52-1.144 2.659-2.668 2.659-1.525 0-2.668-1.14-2.668-2.66 0-1.519 1.144-2.658 2.668-2.658 1.397 0 2.668 1.266 2.668 2.659Z"/><path id="Vector_34" d="M118.908 77.87c0 1.52-1.144 2.659-2.668 2.659-1.525 0-2.668-1.14-2.668-2.66 0-1.519 1.143-2.658 2.668-2.658 1.524 0 2.668 1.266 2.668 2.659Z"/><path id="Vector_35" d="M141.52 77.87c0 1.52-1.143 2.659-2.668 2.659-1.524 0-2.667-1.14-2.667-2.66 0-1.519 1.143-2.658 2.667-2.658 1.525 0 2.668 1.266 2.668 2.659Z"/><path id="Vector_36" d="M5.336 96.736c0 1.52-1.144 2.66-2.668 2.66-1.525 0-2.668-1.14-2.668-2.66 0-1.52 1.143-2.659 2.668-2.659 1.524 0 2.668 1.14 2.668 2.66Z"/><path id="Vector_37" d="M28.076 96.736c0 1.52-1.144 2.66-2.668 2.66-1.525 0-2.668-1.14-2.668-2.66 0-1.52 1.143-2.659 2.668-2.659 1.397 0 2.668 1.14 2.668 2.66Z"/><path id="Vector_38" d="M50.688 96.736c0 1.52-1.143 2.66-2.668 2.66-1.524 0-2.668-1.14-2.668-2.66 0-1.52 1.144-2.659 2.668-2.659 1.525 0 2.668 1.14 2.668 2.66Z"/><path id="Vector_39" d="M70.76 99.395a2.663 2.663 0 0 0 2.668-2.659 2.663 2.663 0 0 0-2.668-2.659 2.663 2.663 0 0 0-2.668 2.66 2.663 2.663 0 0 0 2.668 2.658Z"/><path id="Vector_40" d="M96.168 96.736c0 1.52-1.144 2.66-2.668 2.66-1.525 0-2.668-1.14-2.668-2.66 0-1.52 1.144-2.659 2.668-2.659 1.397 0 2.668 1.14 2.668 2.66Z"/><path id="Vector_41" d="M118.908 96.736c0 1.52-1.144 2.66-2.668 2.66-1.525 0-2.668-1.14-2.668-2.66 0-1.52 1.143-2.659 2.668-2.659 1.524 0 2.668 1.14 2.668 2.66Z"/><path id="Vector_42" d="M141.52 96.736c0 1.52-1.143 2.66-2.668 2.66-1.524 0-2.667-1.14-2.667-2.66 0-1.52 1.143-2.659 2.667-2.659 1.525 0 2.668 1.14 2.668 2.66Z"/><path id="Vector_43" d="M5.336 115.601c0 1.52-1.144 2.659-2.668 2.659-1.525 0-2.668-1.139-2.668-2.659 0-1.519 1.143-2.659 2.668-2.659 1.524 0 2.668 1.14 2.668 2.659Z"/><path id="Vector_44" d="M28.076 115.601c0 1.52-1.144 2.659-2.668 2.659-1.525 0-2.668-1.139-2.668-2.659 0-1.519 1.143-2.659 2.668-2.659 1.397 0 2.668 1.14 2.668 2.659Z"/><path id="Vector_45" d="M50.688 115.601c0 1.52-1.143 2.659-2.668 2.659-1.524 0-2.668-1.139-2.668-2.659 0-1.519 1.144-2.659 2.668-2.659 1.525 0 2.668 1.14 2.668 2.659Z"/><path id="Vector_46" d="M73.428 115.601c0 1.52-1.144 2.659-2.668 2.659-1.524 0-2.668-1.139-2.668-2.659 0-1.519 1.144-2.659 2.668-2.659 1.524 0 2.668 1.14 2.668 2.659Z"/><path id="Vector_47" d="M96.168 115.601c0 1.52-1.144 2.659-2.668 2.659-1.525 0-2.668-1.139-2.668-2.659 0-1.519 1.144-2.659 2.668-2.659 1.397 0 2.668 1.14 2.668 2.659Z"/><path id="Vector_48" d="M118.908 115.601c0 1.52-1.144 2.659-2.668 2.659-1.525 0-2.668-1.139-2.668-2.659 0-1.519 1.143-2.659 2.668-2.659 1.524 0 2.668 1.14 2.668 2.659Z"/><path id="Vector_49" d="M141.52 115.601c0 1.52-1.143 2.659-2.668 2.659-1.524 0-2.667-1.139-2.667-2.659 0-1.519 1.143-2.659 2.667-2.659 1.525 0 2.668 1.14 2.668 2.659Z"/><path id="Vector_50" d="M5.336 134.341c0 1.519-1.144 2.659-2.668 2.659C1.143 137 0 135.86 0 134.341c0-1.52 1.143-2.659 2.668-2.659 1.524 0 2.668 1.266 2.668 2.659Z"/><path id="Vector_51" d="M28.076 134.341c0 1.519-1.144 2.659-2.668 2.659-1.525 0-2.668-1.14-2.668-2.659 0-1.52 1.143-2.659 2.668-2.659 1.397 0 2.668 1.266 2.668 2.659Z"/><path id="Vector_52" d="M50.688 134.341c0 1.519-1.143 2.659-2.668 2.659-1.524 0-2.668-1.14-2.668-2.659 0-1.52 1.144-2.659 2.668-2.659 1.525 0 2.668 1.266 2.668 2.659Z"/><path id="Vector_53" d="M73.428 134.341c0 1.519-1.144 2.659-2.668 2.659-1.524 0-2.668-1.14-2.668-2.659 0-1.52 1.144-2.659 2.668-2.659 1.524 0 2.668 1.266 2.668 2.659Z"/><path id="Vector_54" d="M96.168 134.341c0 1.519-1.144 2.659-2.668 2.659-1.525 0-2.668-1.14-2.668-2.659 0-1.52 1.144-2.659 2.668-2.659 1.397 0 2.668 1.266 2.668 2.659Z"/><path id="Vector_55" d="M118.908 134.341c0 1.519-1.144 2.659-2.668 2.659-1.525 0-2.668-1.14-2.668-2.659 0-1.52 1.143-2.659 2.668-2.659 1.524 0 2.668 1.266 2.668 2.659Z"/><path id="Vector_56" d="M141.52 134.341c0 1.519-1.143 2.659-2.668 2.659-1.524 0-2.667-1.14-2.667-2.659 0-1.52 1.143-2.659 2.667-2.659 1.525 0 2.668 1.266 2.668 2.659Z"/></g></g><defs><clipPath id="clip0_2320_3687"><path fill="#fff" d="M0 0h187v137H0z"/></clipPath></defs></svg>