<svg width="157" height="137" fill="none" xmlns="http://www.w3.org/2000/svg"><g opacity=".8" clip-path="url('#clip0_2234_8808')" fill="#fff"><path d="M5.336 41.296c0 1.52-1.144 2.659-2.668 2.659-1.525 0-2.668-1.14-2.668-2.66 0-1.519 1.143-2.658 2.668-2.658 1.524 0 2.668 1.266 2.668 2.659ZM28.075 41.296c0 1.52-1.143 2.659-2.668 2.659-1.524 0-2.667-1.14-2.667-2.66 0-1.519 1.143-2.658 2.668-2.658 1.397 0 2.667 1.266 2.667 2.659ZM50.688 41.296c0 1.52-1.143 2.659-2.668 2.659-1.524 0-2.668-1.14-2.668-2.66 0-1.519 1.144-2.658 2.668-2.658 1.525 0 2.668 1.266 2.668 2.659ZM73.428 41.296c0 1.52-1.144 2.659-2.668 2.659-1.524 0-2.668-1.14-2.668-2.66 0-1.519 1.144-2.658 2.668-2.658 1.524 0 2.668 1.266 2.668 2.659ZM96.168 41.296c0 1.52-1.144 2.659-2.668 2.659-1.525 0-2.668-1.14-2.668-2.66 0-1.519 1.143-2.658 2.668-2.658 1.397 0 2.668 1.266 2.668 2.659ZM118.908 41.296c0 1.52-1.143 2.659-2.668 2.659-1.524 0-2.668-1.14-2.668-2.66 0-1.519 1.144-2.658 2.668-2.658 1.525 0 2.668 1.266 2.668 2.659ZM141.52 41.296c0 1.52-1.143 2.659-2.668 2.659-1.524 0-2.667-1.14-2.667-2.66 0-1.519 1.143-2.658 2.667-2.658 1.525 0 2.668 1.266 2.668 2.659ZM5.336 60.614c0 1.52-1.144 2.659-2.668 2.659-1.525 0-2.668-1.14-2.668-2.659 0-1.52 1.143-2.659 2.668-2.659 1.524 0 2.668 1.14 2.668 2.659ZM28.075 60.614c0 1.52-1.143 2.659-2.668 2.659-1.524 0-2.667-1.14-2.667-2.659 0-1.52 1.143-2.659 2.668-2.659 1.397 0 2.667 1.14 2.667 2.659ZM50.688 60.614c0 1.52-1.143 2.659-2.668 2.659-1.524 0-2.668-1.14-2.668-2.659 0-1.52 1.144-2.659 2.668-2.659 1.525 0 2.668 1.14 2.668 2.659ZM73.428 60.614c0 1.52-1.144 2.659-2.668 2.659-1.524 0-2.668-1.14-2.668-2.659 0-1.52 1.144-2.659 2.668-2.659 1.524 0 2.668 1.14 2.668 2.659ZM96.168 60.614c0 1.52-1.144 2.659-2.668 2.659-1.525 0-2.668-1.14-2.668-2.659 0-1.52 1.143-2.659 2.668-2.659 1.397 0 2.668 1.14 2.668 2.659ZM118.908 60.614c0 1.52-1.143 2.659-2.668 2.659-1.524 0-2.668-1.14-2.668-2.659 0-1.52 1.144-2.659 2.668-2.659 1.525 0 2.668 1.14 2.668 2.659ZM141.52 60.614c0 1.52-1.143 2.659-2.668 2.659-1.524 0-2.667-1.14-2.667-2.659 0-1.52 1.143-2.659 2.667-2.659 1.525 0 2.668 1.14 2.668 2.659ZM5.336 2.659c0 1.52-1.144 2.659-2.668 2.659C1.143 5.318 0 4.178 0 2.659 0 1.139 1.143 0 2.668 0c1.524 0 2.668 1.14 2.668 2.659ZM28.075 2.659c0 1.52-1.143 2.659-2.668 2.659-1.524 0-2.667-1.14-2.667-2.659C22.74 1.139 23.883 0 25.408 0c1.397 0 2.667 1.14 2.667 2.659ZM50.688 2.659c0 1.52-1.143 2.659-2.668 2.659-1.524 0-2.668-1.14-2.668-2.659 0-1.52 1.27-2.659 2.668-2.659 1.525 0 2.668 1.14 2.668 2.659ZM73.428 2.659c0 1.52-1.144 2.659-2.668 2.659-1.524 0-2.668-1.14-2.668-2.659 0-1.52 1.27-2.659 2.668-2.659 1.397 0 2.668 1.14 2.668 2.659ZM96.168 2.659c0 1.52-1.144 2.659-2.668 2.659-1.525 0-2.668-1.14-2.668-2.659C90.832 1.139 91.975 0 93.5 0c1.397 0 2.668 1.14 2.668 2.659ZM118.908 2.659c0 1.52-1.143 2.659-2.668 2.659-1.524 0-2.668-1.14-2.668-2.659 0-1.52 1.144-2.659 2.668-2.659 1.525 0 2.668 1.14 2.668 2.659ZM141.52 2.659c0 1.52-1.143 2.659-2.668 2.659-1.524 0-2.667-1.14-2.667-2.659 0-1.52 1.143-2.659 2.667-2.659 1.525 0 2.668 1.14 2.668 2.659ZM5.336 21.977c0 1.52-1.144 2.66-2.668 2.66C1.143 24.636 0 23.37 0 21.976c0-1.52 1.143-2.659 2.668-2.659 1.524 0 2.668 1.14 2.668 2.66ZM28.075 21.977c0 1.52-1.143 2.66-2.668 2.66-1.524 0-2.667-1.14-2.667-2.66 0-1.52 1.143-2.659 2.668-2.659 1.397 0 2.667 1.14 2.667 2.66ZM50.688 21.977c0 1.52-1.143 2.66-2.668 2.66-1.524 0-2.668-1.14-2.668-2.66 0-1.52 1.144-2.659 2.668-2.659 1.525 0 2.668 1.14 2.668 2.66ZM73.428 21.977c0 1.52-1.144 2.66-2.668 2.66-1.524 0-2.668-1.14-2.668-2.66 0-1.52 1.144-2.659 2.668-2.659 1.524 0 2.668 1.14 2.668 2.66ZM96.168 21.977c0 1.52-1.144 2.66-2.668 2.66-1.525 0-2.668-1.14-2.668-2.66 0-1.52 1.143-2.659 2.668-2.659 1.397 0 2.668 1.14 2.668 2.66ZM118.908 21.977c0 1.52-1.143 2.66-2.668 2.66-1.524 0-2.668-1.14-2.668-2.66 0-1.52 1.144-2.659 2.668-2.659 1.525 0 2.668 1.14 2.668 2.66ZM141.52 21.977c0 1.52-1.143 2.66-2.668 2.66-1.524 0-2.667-1.14-2.667-2.66 0-1.52 1.143-2.659 2.667-2.659 1.525 0 2.668 1.14 2.668 2.66ZM5.336 79.932c0 1.52-1.144 2.66-2.668 2.66-1.525 0-2.668-1.14-2.668-2.66 0-1.519 1.143-2.659 2.668-2.659 1.524 0 2.668 1.267 2.668 2.66ZM28.075 79.932c0 1.52-1.143 2.66-2.668 2.66-1.524 0-2.667-1.14-2.667-2.66 0-1.519 1.143-2.659 2.668-2.659 1.397 0 2.667 1.267 2.667 2.66ZM50.688 79.932c0 1.52-1.143 2.66-2.668 2.66-1.524 0-2.668-1.14-2.668-2.66 0-1.519 1.144-2.659 2.668-2.659 1.525 0 2.668 1.267 2.668 2.66ZM73.428 79.932c0 1.52-1.144 2.66-2.668 2.66-1.524 0-2.668-1.14-2.668-2.66 0-1.519 1.144-2.659 2.668-2.659 1.524 0 2.668 1.267 2.668 2.66ZM96.168 79.932c0 1.52-1.144 2.66-2.668 2.66-1.525 0-2.668-1.14-2.668-2.66 0-1.519 1.143-2.659 2.668-2.659 1.397 0 2.668 1.267 2.668 2.66ZM118.908 79.932c0 1.52-1.143 2.66-2.668 2.66-1.524 0-2.668-1.14-2.668-2.66 0-1.519 1.144-2.659 2.668-2.659 1.525 0 2.668 1.267 2.668 2.66ZM141.52 79.932c0 1.52-1.143 2.66-2.668 2.66-1.524 0-2.667-1.14-2.667-2.66 0-1.519 1.143-2.659 2.667-2.659 1.525 0 2.668 1.267 2.668 2.66ZM5.336 99.25c0 1.52-1.144 2.66-2.668 2.66-1.525 0-2.668-1.14-2.668-2.66 0-1.519 1.143-2.658 2.668-2.658 1.524 0 2.668 1.14 2.668 2.659ZM28.075 99.25c0 1.52-1.143 2.66-2.668 2.66-1.524 0-2.667-1.14-2.667-2.66 0-1.519 1.143-2.658 2.668-2.658 1.397 0 2.667 1.14 2.667 2.659ZM50.688 99.25c0 1.52-1.143 2.66-2.668 2.66-1.524 0-2.668-1.14-2.668-2.66 0-1.519 1.144-2.658 2.668-2.658 1.525 0 2.668 1.14 2.668 2.659ZM70.76 101.91a2.664 2.664 0 0 0 2.668-2.66 2.663 2.663 0 0 0-2.668-2.658 2.663 2.663 0 0 0-2.668 2.659 2.664 2.664 0 0 0 2.668 2.659ZM96.168 99.25c0 1.52-1.144 2.66-2.668 2.66-1.525 0-2.668-1.14-2.668-2.66 0-1.519 1.143-2.658 2.668-2.658 1.397 0 2.668 1.14 2.668 2.659ZM118.908 99.25c0 1.52-1.143 2.66-2.668 2.66-1.524 0-2.668-1.14-2.668-2.66 0-1.519 1.144-2.658 2.668-2.658 1.525 0 2.668 1.14 2.668 2.659ZM141.52 99.25c0 1.52-1.143 2.66-2.668 2.66-1.524 0-2.667-1.14-2.667-2.66 0-1.519 1.143-2.658 2.667-2.658 1.525 0 2.668 1.14 2.668 2.659ZM5.336 118.569c0 1.52-1.144 2.659-2.668 2.659-1.525 0-2.668-1.139-2.668-2.659 0-1.519 1.143-2.659 2.668-2.659 1.524 0 2.668 1.14 2.668 2.659ZM28.075 118.569c0 1.52-1.143 2.659-2.668 2.659-1.524 0-2.667-1.139-2.667-2.659 0-1.519 1.143-2.659 2.668-2.659 1.397 0 2.667 1.14 2.667 2.659ZM50.688 118.569c0 1.52-1.143 2.659-2.668 2.659-1.524 0-2.668-1.139-2.668-2.659 0-1.519 1.144-2.659 2.668-2.659 1.525 0 2.668 1.14 2.668 2.659ZM73.428 118.569c0 1.52-1.144 2.659-2.668 2.659-1.524 0-2.668-1.139-2.668-2.659 0-1.519 1.144-2.659 2.668-2.659 1.524 0 2.668 1.14 2.668 2.659ZM96.168 118.569c0 1.52-1.144 2.659-2.668 2.659-1.525 0-2.668-1.139-2.668-2.659 0-1.519 1.143-2.659 2.668-2.659 1.397 0 2.668 1.14 2.668 2.659ZM118.908 118.569c0 1.52-1.143 2.659-2.668 2.659-1.524 0-2.668-1.139-2.668-2.659 0-1.519 1.144-2.659 2.668-2.659 1.525 0 2.668 1.14 2.668 2.659ZM141.52 118.569c0 1.52-1.143 2.659-2.668 2.659-1.524 0-2.667-1.139-2.667-2.659 0-1.519 1.143-2.659 2.667-2.659 1.525 0 2.668 1.14 2.668 2.659ZM5.336 137.887c0 1.52-1.144 2.659-2.668 2.659-1.525 0-2.668-1.139-2.668-2.659 0-1.519 1.143-2.658 2.668-2.658 1.524 0 2.668 1.266 2.668 2.658ZM28.075 137.887c0 1.52-1.143 2.659-2.668 2.659-1.524 0-2.667-1.139-2.667-2.659 0-1.519 1.143-2.658 2.668-2.658 1.397 0 2.667 1.266 2.667 2.658ZM50.688 137.887c0 1.52-1.143 2.659-2.668 2.659-1.524 0-2.668-1.139-2.668-2.659 0-1.519 1.144-2.658 2.668-2.658 1.525 0 2.668 1.266 2.668 2.658ZM73.428 137.887c0 1.52-1.144 2.659-2.668 2.659-1.524 0-2.668-1.139-2.668-2.659 0-1.519 1.144-2.658 2.668-2.658 1.524 0 2.668 1.266 2.668 2.658ZM96.168 137.887c0 1.52-1.144 2.659-2.668 2.659-1.525 0-2.668-1.139-2.668-2.659 0-1.519 1.143-2.658 2.668-2.658 1.397 0 2.668 1.266 2.668 2.658ZM118.908 137.887c0 1.52-1.143 2.659-2.668 2.659-1.524 0-2.668-1.139-2.668-2.659 0-1.519 1.144-2.658 2.668-2.658 1.525 0 2.668 1.266 2.668 2.658ZM141.52 137.887c0 1.52-1.143 2.659-2.668 2.659-1.524 0-2.667-1.139-2.667-2.659 0-1.519 1.143-2.658 2.667-2.658 1.525 0 2.668 1.266 2.668 2.658Z"/></g><defs><clipPath id="clip0_2234_8808"><path fill="#fff" d="M0 0h187v137H0z"/></clipPath></defs></svg>