<svg width="136" height="184" fill="none" xmlns="http://www.w3.org/2000/svg"><g opacity=".8" clip-path="url('#clip0_2234_9590')" fill="#FFCF2D"><path d="M41.357 177.974c1.473-.015 2.588 1.081 2.603 2.558.016 1.477-1.077 2.596-2.549 2.611-1.472.015-2.587-1.081-2.603-2.558-.015-1.477 1.2-2.597 2.55-2.611ZM41.129 155.943c1.472-.016 2.588 1.081 2.603 2.557.015 1.477-1.077 2.597-2.55 2.612-1.471.015-2.587-1.081-2.602-2.558-.014-1.354 1.2-2.597 2.549-2.611ZM40.901 134.035c1.472-.015 2.588 1.081 2.603 2.558.016 1.477-1.077 2.596-2.549 2.612-1.472.015-2.588-1.081-2.603-2.558-.015-1.477 1.2-2.598 2.55-2.612ZM40.672 112.003c1.472-.015 2.588 1.081 2.603 2.558.016 1.477-1.077 2.596-2.549 2.611-1.472.016-2.588-1.081-2.603-2.557-.015-1.477 1.2-2.598 2.55-2.612ZM40.443 89.972c1.472-.015 2.588 1.08 2.603 2.558.016 1.477-1.077 2.596-2.549 2.611-1.472.015-2.588-1.08-2.603-2.558-.014-1.354 1.2-2.597 2.55-2.611ZM40.215 67.94c1.472-.015 2.587 1.082 2.603 2.559.015 1.477-1.077 2.596-2.55 2.611-1.472.015-2.587-1.081-2.602-2.558-.016-1.477 1.2-2.597 2.549-2.611ZM39.987 46.032c1.472-.015 2.587 1.081 2.603 2.558.015 1.477-1.078 2.596-2.55 2.612-1.472.015-2.587-1.081-2.602-2.558-.016-1.477 1.2-2.598 2.549-2.612ZM39.758 24.001c1.472-.015 2.588 1.081 2.603 2.558.016 1.477-1.077 2.596-2.549 2.611-1.472.016-2.588-1.08-2.603-2.557-.015-1.477 1.2-2.598 2.55-2.612ZM39.53 1.97c1.471-.015 2.587 1.08 2.602 2.558.016 1.477-1.077 2.596-2.549 2.611-1.472.016-2.588-1.08-2.603-2.558-.014-1.354 1.2-2.597 2.55-2.611ZM59.636 177.784c1.472-.015 2.587 1.081 2.603 2.558.015 1.477-1.078 2.596-2.55 2.612-1.472.015-2.587-1.081-2.603-2.558-.015-1.477 1.078-2.596 2.55-2.612ZM59.407 155.753c1.472-.015 2.587 1.081 2.603 2.558.015 1.477-1.078 2.596-2.55 2.611-1.472.016-2.587-1.081-2.603-2.557-.014-1.354 1.078-2.597 2.55-2.612ZM59.18 133.845c1.471-.015 2.587 1.081 2.602 2.558.016 1.477-1.077 2.596-2.55 2.611-1.471.016-2.587-1.081-2.602-2.558-.016-1.477 1.077-2.596 2.55-2.611ZM58.95 111.814c1.472-.016 2.588 1.081 2.603 2.558.016 1.477-1.077 2.596-2.55 2.611-1.471.015-2.587-1.081-2.602-2.558-.016-1.477 1.077-2.596 2.55-2.611ZM58.722 89.782c1.472-.015 2.587 1.081 2.603 2.558.015 1.477-1.078 2.596-2.55 2.612-1.472.015-2.587-1.081-2.603-2.558-.014-1.354 1.078-2.596 2.55-2.612ZM58.493 67.751c1.472-.015 2.587 1.081 2.603 2.558.015 1.477-1.078 2.596-2.55 2.612-1.472.015-2.587-1.082-2.603-2.558-.015-1.477 1.078-2.597 2.55-2.612ZM58.265 45.843c1.472-.015 2.588 1.08 2.603 2.558.015 1.477-1.077 2.596-2.55 2.611-1.471.016-2.587-1.08-2.602-2.558-.016-1.477 1.077-2.596 2.55-2.611ZM58.036 23.812c1.472-.016 2.588 1.08 2.603 2.558.015 1.477-1.077 2.596-2.55 2.611-1.471.015-2.587-1.08-2.602-2.558-.016-1.477 1.077-2.596 2.55-2.611ZM57.808 1.78c1.472-.016 2.587 1.08 2.603 2.557.015 1.477-1.078 2.597-2.55 2.612-1.472.015-2.587-1.081-2.603-2.558-.014-1.354 1.078-2.596 2.55-2.612ZM4.924 178.353c1.472-.016 2.587 1.081 2.603 2.558.015 1.477-1.077 2.596-2.55 2.611-1.472.015-2.587-1.081-2.602-2.558-.016-1.477 1.077-2.596 2.549-2.611ZM4.695 156.321c1.472-.015 2.587 1.081 2.603 2.558.015 1.477-1.077 2.597-2.55 2.612-1.472.015-2.587-1.081-2.602-2.558-.015-1.354 1.077-2.596 2.549-2.612ZM4.467 134.413c1.472-.015 2.588 1.081 2.603 2.558.016 1.477-1.077 2.596-2.55 2.612-1.471.015-2.588-1.204-2.602-2.558-.015-1.477 1.077-2.596 2.55-2.612ZM4.239 112.382c1.472-.015 2.587 1.081 2.603 2.558.015 1.477-1.077 2.596-2.55 2.611-1.472.016-2.588-1.204-2.603-2.558-.014-1.353 1.078-2.596 2.55-2.611ZM4.01 90.35c1.472-.014 2.587 1.082 2.603 2.559.015 1.477-1.078 2.596-2.55 2.611-1.472.015-2.587-1.08-2.603-2.558-.014-1.354 1.078-2.596 2.55-2.611ZM3.78 68.32c1.473-.016 2.588 1.08 2.604 2.557.015 1.477-1.078 2.597-2.55 2.612-1.472.015-2.587-1.081-2.603-2.558-.015-1.477 1.078-2.596 2.55-2.611ZM3.553 46.411c1.472-.015 2.588 1.081 2.603 2.558.016 1.477-1.077 2.596-2.55 2.612-1.471.015-2.587-1.081-2.602-2.558-.015-1.477 1.077-2.596 2.55-2.612ZM3.324 24.38c1.472-.015 2.588 1.081 2.603 2.558.015 1.477-1.077 2.596-2.55 2.611-1.471.016-2.587-1.08-2.602-2.558-.015-1.476 1.077-2.596 2.55-2.611ZM3.096 2.348c1.472-.015 2.587 1.08 2.603 2.558.015 1.477-1.078 2.596-2.55 2.611C1.677 7.532.562 6.437.546 4.96c-.014-1.354 1.078-2.596 2.55-2.611ZM23.202 178.163c1.472-.015 2.588 1.081 2.603 2.558.015 1.477-1.2 2.598-2.55 2.612-1.471.015-2.587-1.081-2.602-2.558-.015-1.477 1.077-2.596 2.55-2.612ZM22.973 156.131c1.472-.015 2.588 1.081 2.603 2.558.015 1.477-1.077 2.596-2.55 2.611-1.471.016-2.587-1.081-2.602-2.558-.014-1.353 1.077-2.596 2.55-2.611ZM22.746 134.224c1.472-.015 2.587 1.081 2.603 2.558.015 1.477-1.078 2.596-2.55 2.611-1.472.015-2.587-1.081-2.603-2.558-.015-1.477 1.077-2.596 2.55-2.611ZM22.517 112.192c1.472-.016 2.587 1.081 2.602 2.557.016 1.477-1.077 2.597-2.549 2.612-1.472.015-2.587-1.081-2.603-2.558-.015-1.477 1.078-2.596 2.55-2.611ZM22.288 90.16c1.472-.015 2.588 1.081 2.603 2.558.015 1.477-1.077 2.596-2.55 2.612-1.471.015-2.587-1.081-2.602-2.558-.014-1.354 1.077-2.596 2.55-2.612ZM22.059 68.13c1.472-.016 2.588 1.08 2.603 2.557.015 1.477-1.077 2.596-2.55 2.611-1.471.016-2.587-1.08-2.602-2.558-.016-1.476 1.077-2.596 2.549-2.61ZM21.831 46.22c1.473-.014 2.588 1.082 2.604 2.559.015 1.477-1.078 2.596-2.55 2.611-1.472.016-2.587-1.08-2.603-2.558-.015-1.477 1.077-2.596 2.55-2.611ZM21.602 24.19c1.473-.016 2.588 1.08 2.604 2.557.015 1.477-1.078 2.597-2.55 2.612-1.472.015-2.587-1.081-2.603-2.558-.015-1.477 1.077-2.596 2.55-2.611ZM21.374 2.158c1.472-.015 2.588 1.081 2.603 2.558.015 1.477-1.077 2.596-2.55 2.612-1.471.015-2.587-1.081-2.602-2.558-.014-1.354 1.077-2.596 2.549-2.612ZM77.791 177.596c1.472-.015 2.588 1.081 2.603 2.558.016 1.477-1.077 2.596-2.549 2.611-1.472.016-2.588-1.081-2.603-2.558-.015-1.477 1.2-2.597 2.55-2.611ZM77.563 155.565c1.471-.016 2.587 1.081 2.602 2.558.016 1.477-1.077 2.596-2.549 2.611-1.472.015-2.588-1.081-2.603-2.558-.014-1.354 1.2-2.597 2.55-2.611ZM77.335 133.656c1.472-.015 2.588 1.081 2.603 2.558.015 1.477-1.077 2.596-2.55 2.612-1.471.015-2.587-1.081-2.602-2.558-.016-1.477 1.2-2.598 2.549-2.612ZM77.106 111.625c1.472-.015 2.588 1.081 2.603 2.558.015 1.477-1.077 2.596-2.55 2.612-1.472.015-2.587-1.081-2.602-2.558-.016-1.477 1.2-2.598 2.549-2.612ZM76.877 89.594c1.473-.015 2.588 1.08 2.603 2.558.016 1.477-1.077 2.596-2.549 2.611-1.472.016-2.587-1.08-2.603-2.558-.014-1.353 1.2-2.597 2.55-2.611ZM76.648 67.562c1.473-.016 2.588 1.08 2.603 2.558.016 1.477-1.077 2.596-2.549 2.611-1.472.015-2.587-1.08-2.603-2.558-.015-1.477 1.2-2.597 2.55-2.611ZM76.42 45.654c1.473-.015 2.588 1.081 2.604 2.558.015 1.477-1.077 2.596-2.55 2.612-1.472.015-2.587-1.081-2.602-2.558-.016-1.477 1.2-2.597 2.549-2.611ZM76.192 23.623c1.472-.015 2.588 1.081 2.603 2.558.015 1.477-1.077 2.596-2.55 2.612-1.472.015-2.587-1.081-2.602-2.558-.016-1.477 1.2-2.598 2.549-2.612ZM75.963 1.591c1.472-.015 2.588 1.08 2.603 2.558.015 1.477-1.077 2.596-2.55 2.611-1.472.016-2.587-1.08-2.602-2.558-.014-1.353 1.2-2.597 2.549-2.611ZM96.07 177.406c1.471-.015 2.587 1.081 2.602 2.558.016 1.477-1.077 2.596-2.549 2.612-1.472.015-2.588-1.081-2.603-2.558-.015-1.477 1.077-2.596 2.55-2.612ZM95.84 155.374c1.472-.015 2.588 1.081 2.603 2.558.016 1.477-1.077 2.596-2.549 2.612-1.472.015-2.588-1.081-2.603-2.558-.014-1.354 1.077-2.597 2.55-2.612ZM95.613 133.467c1.472-.015 2.587 1.081 2.603 2.558.015 1.477-1.078 2.596-2.55 2.611-1.472.016-2.587-1.081-2.602-2.558-.016-1.477 1.077-2.596 2.549-2.611ZM97.987 113.993a2.58 2.58 0 0 0-2.603-2.558 2.58 2.58 0 0 0-2.549 2.611 2.58 2.58 0 0 0 2.603 2.558 2.58 2.58 0 0 0 2.55-2.611ZM95.155 89.403c1.472-.015 2.588 1.081 2.603 2.558.016 1.477-1.077 2.597-2.55 2.612-1.471.015-2.587-1.081-2.602-2.558-.014-1.354 1.077-2.596 2.55-2.612ZM94.926 67.372c1.472-.015 2.588 1.081 2.603 2.558.016 1.477-1.077 2.596-2.55 2.612-1.471.015-2.587-1.081-2.602-2.558-.015-1.477 1.077-2.596 2.55-2.612ZM94.699 45.464c1.472-.015 2.587 1.081 2.603 2.558.015 1.477-1.078 2.596-2.55 2.611-1.472.016-2.587-1.08-2.603-2.558-.015-1.477 1.078-2.596 2.55-2.611ZM97.073 25.99a2.58 2.58 0 0 0-2.603-2.557 2.58 2.58 0 0 0-2.55 2.611 2.58 2.58 0 0 0 2.604 2.558 2.58 2.58 0 0 0 2.55-2.611ZM94.241 1.402c1.472-.016 2.588 1.08 2.603 2.557.016 1.477-1.077 2.597-2.55 2.612-1.471.015-2.587-1.081-2.602-2.558-.014-1.354 1.077-2.596 2.55-2.611ZM114.348 177.216c1.472-.015 2.587 1.081 2.603 2.558.015 1.477-1.078 2.596-2.55 2.611-1.472.016-2.587-1.081-2.603-2.558-.015-1.477 1.078-2.596 2.55-2.611ZM114.119 155.185c1.472-.016 2.587 1.081 2.603 2.558.015 1.477-1.078 2.596-2.55 2.611-1.472.015-2.587-1.081-2.603-2.558-.014-1.354 1.078-2.596 2.55-2.611ZM113.891 133.277c1.472-.016 2.588 1.08 2.603 2.557.015 1.477-1.077 2.597-2.549 2.612-1.472.015-2.588-1.081-2.603-2.558-.016-1.477 1.077-2.596 2.549-2.611ZM113.663 111.245c1.472-.015 2.587 1.081 2.603 2.558.015 1.477-1.078 2.596-2.55 2.612-1.472.015-2.587-1.081-2.603-2.558-.015-1.477 1.078-2.596 2.55-2.612ZM113.434 89.214c1.472-.015 2.587 1.081 2.603 2.558.015 1.477-1.078 2.596-2.55 2.611-1.472.016-2.587-1.08-2.603-2.557-.014-1.354 1.077-2.597 2.55-2.612ZM113.205 67.183c1.472-.016 2.587 1.08 2.603 2.558.015 1.477-1.078 2.596-2.55 2.611-1.472.015-2.587-1.08-2.603-2.558-.015-1.477 1.077-2.596 2.55-2.611ZM112.977 45.275c1.472-.016 2.588 1.08 2.603 2.558.015 1.477-1.077 2.596-2.549 2.61-1.472.016-2.588-1.08-2.603-2.557-.016-1.477 1.077-2.596 2.549-2.611ZM112.749 23.243c1.472-.015 2.587 1.081 2.602 2.558.016 1.477-1.077 2.596-2.549 2.612-1.472.015-2.587-1.081-2.603-2.558-.015-1.477 1.077-2.596 2.55-2.612ZM112.52 1.212c1.472-.015 2.587 1.081 2.602 2.558.016 1.477-1.077 2.596-2.549 2.611-1.472.016-2.587-1.08-2.603-2.557-.014-1.354 1.077-2.597 2.55-2.612ZM132.503 177.028c1.472-.016 2.588 1.08 2.603 2.557.016 1.477-1.077 2.597-2.549 2.612-1.472.015-2.588-1.081-2.603-2.558-.015-1.477 1.2-2.597 2.549-2.611ZM132.274 154.996c1.472-.015 2.588 1.081 2.603 2.558.016 1.477-1.077 2.596-2.549 2.612-1.472.015-2.588-1.081-2.603-2.558-.014-1.354 1.2-2.598 2.549-2.612ZM132.047 133.088c1.472-.015 2.587 1.081 2.603 2.558.015 1.477-1.077 2.596-2.549 2.611-1.473.016-2.588-1.081-2.603-2.557-.016-1.477 1.199-2.598 2.549-2.612ZM131.818 111.057c1.472-.015 2.587 1.081 2.603 2.558.015 1.477-1.077 2.596-2.549 2.611-1.473.015-2.588-1.081-2.603-2.558-.016-1.477 1.199-2.597 2.549-2.611ZM131.589 89.026c1.472-.016 2.587 1.08 2.603 2.558.015 1.476-1.077 2.596-2.549 2.61-1.473.016-2.588-1.08-2.603-2.557-.015-1.354 1.199-2.597 2.549-2.611ZM131.36 66.993c1.472-.015 2.588 1.081 2.603 2.558.016 1.477-1.077 2.596-2.549 2.612-1.472.015-2.588-1.081-2.603-2.558-.015-1.477 1.2-2.598 2.549-2.612ZM131.133 45.086c1.472-.015 2.587 1.081 2.603 2.558.015 1.477-1.077 2.596-2.55 2.611-1.472.016-2.587-1.08-2.602-2.558-.016-1.476 1.199-2.597 2.549-2.61ZM130.904 23.055c1.472-.015 2.587 1.08 2.603 2.558.015 1.477-1.077 2.596-2.55 2.611-1.472.015-2.587-1.08-2.603-2.558-.015-1.477 1.2-2.597 2.55-2.611ZM130.675 1.023c1.472-.016 2.587 1.08 2.603 2.558.015 1.477-1.077 2.596-2.55 2.611-1.472.015-2.587-1.081-2.603-2.558-.014-1.354 1.2-2.597 2.55-2.611Z"/></g><defs><clipPath id="clip0_2234_9590"><path fill="#fff" transform="rotate(-90.595 92.027 90.586)" d="M0 0h181.184v132.739H0z"/></clipPath></defs></svg>