<svg aria-hidden="true" style="width:0;height:0;position:absolute;overflow:hidden" xmlns="http://www.w3.org/2000/svg"><defs><symbol id="icon-burger" viewBox="0 0 48 32"><path d="M0 0h48v6.4H0zm0 12.8h48v6.4H0zm0 12.8h48V32H0z"/></symbol><symbol id="icon-close" viewBox="0 0 32 32"><path stroke-width="4.571" d="M28.101 3.81 2.286 28.187m0-24.377 25.815 24.379"/></symbol><symbol id="icon-behance" viewBox="0 0 32 32"><path fill="#787a80" style="fill:var(--color1,#787a80)" d="M16.487 20.192c0-2.628-1.172-4.571-3.594-5.299 1.767-.897 2.689-2.257 2.689-4.372 0-4.17-2.923-5.187-6.296-5.187H0v20.937h9.546c3.579 0 6.941-1.825 6.941-6.079zM4.329 8.907h4.062c1.562 0 2.967.466 2.967 2.392 0 1.778-1.094 2.493-2.64 2.493H4.329V8.907zm-.002 13.808v-5.766h4.718c1.906 0 3.111.845 3.111 2.99 0 2.115-1.439 2.776-3.201 2.776H4.326zM25.066 26.667c3.406 0 5.612-1.631 6.673-5.099h-3.457c-.372 1.294-1.906 1.978-3.095 1.978-2.295 0-3.501-1.429-3.501-3.859h10.286c.325-4.861-2.214-9.004-6.908-9.004-4.346 0-7.296 3.473-7.296 8.023 0 4.722 2.795 7.96 7.297 7.96zm-.123-12.838c1.967 0 2.956 1.229 3.122 3.238h-6.373c.129-1.993 1.374-3.238 3.251-3.238zM20.893 6.433h7.985v2.062h-7.985V6.433z"/></symbol><symbol id="icon-braces" viewBox="0 0 43 32"><path fill="#ff3f3a" style="fill:var(--color2,#ff3f3a)" d="M27.429 14.785c0-.448.197-.874.54-1.163L42.667 1.185v28.952c0 .842-.682 1.524-1.524 1.524h-12.19a1.524 1.524 0 0 1-1.524-1.524V14.785zM0 14.785c0-.448.197-.874.54-1.163L15.239 1.185v28.952c0 .842-.682 1.524-1.524 1.524H1.525a1.524 1.524 0 0 1-1.524-1.524V14.785z"/></symbol><symbol id="icon-Calendar" viewBox="0 0 30 32"><path fill="#787a80" style="fill:var(--color1,#787a80)" d="M9.412 2.511c.693 0 1.255.562 1.255 1.255v.627h8.784v-.627a1.255 1.255 0 0 1 2.51 0v.627h1.569a5.02 5.02 0 0 1 5.019 5.02v15.059a5.02 5.02 0 0 1-5.019 5.02H6.589a5.02 5.02 0 0 1-5.02-5.019V9.414a5.02 5.02 0 0 1 5.02-5.02h1.569v-.627c0-.693.562-1.255 1.255-1.255zM8.157 6.903H6.588a2.51 2.51 0 0 0-2.51 2.51v1.569h21.961V9.413a2.51 2.51 0 0 0-2.51-2.51H21.96v.627a1.255 1.255 0 0 1-2.51 0v-.627h-8.784v.627a1.255 1.255 0 0 1-2.51 0v-.627zm17.883 6.588H4.079v10.98a2.51 2.51 0 0 0 2.51 2.51H23.53a2.51 2.51 0 0 0 2.51-2.51v-10.98z"/></symbol><symbol id="icon-chat" viewBox="0 0 32 32"><path d="M29.231 14.091a10.336 10.336 0 0 1-1.307 3.716c.05.285.076.572.076.861 0 1.004-.291 1.964-.83 2.837-.269.436-.338.946-.365 1.283-.03.387-.02.81.007 1.216.031.456.087.934.151 1.386a27.95 27.95 0 0 0-1.623-.426 11.645 11.645 0 0 0-1.321-.23c-.362-.037-.885-.066-1.353.085a10.837 10.837 0 0 1-3.334.515c-1.411 0-2.706-.25-3.842-.685a17.62 17.62 0 0 1-5.423-.583c2.103 2.432 5.569 3.935 9.265 3.935 1.444 0 2.83-.222 4.107-.629h.012c.033-.001.124-.003.294.015.268.028.611.089 1.008.179.79.178 1.677.441 2.369.661 1.467.466 2.888-.814 2.626-2.303a21.038 21.038 0 0 1-.276-2.1 5.99 5.99 0 0 1-.01-.825 1.48 1.48 0 0 1 .021-.167c.75-1.243 1.182-2.658 1.182-4.164 0-1.698-.527-3.249-1.435-4.577z"/><path d="M7.462 7.599c-1.797 1.374-2.796 3.179-2.796 5.069 0 .943.245 1.851.706 2.695.175.322.225.653.243.878.019.245.01.497-.012.732a11.765 11.765 0 0 1-.266 1.531 31.636 31.636 0 0 1-.511 1.887 36.69 36.69 0 0 1 2.204-.731c.59-.172 1.185-.321 1.716-.405.457-.072 1.119-.143 1.69.054a12.96 12.96 0 0 0 4.231.693c2.863 0 5.405-.889 7.204-2.264s2.796-3.179 2.796-5.069-.999-3.695-2.796-5.069c-1.798-1.375-4.341-2.264-7.204-2.264S9.262 6.225 7.463 7.6zm-1.62-2.118c2.303-1.761 5.427-2.813 8.824-2.813s6.52 1.051 8.824 2.813c2.305 1.762 3.843 4.291 3.843 7.187s-1.538 5.425-3.843 7.187c-2.303 1.761-5.428 2.813-8.824 2.813a15.64 15.64 0 0 1-5.054-.823c-.002.004-.128-.008-.45.043a11.86 11.86 0 0 0-1.385.331c-1.074.313-2.28.757-3.199 1.114-1.591.619-3.213-.909-2.677-2.537.284-.863.619-1.953.838-2.895.11-.474.181-.873.208-1.168.009-.103.012-.177.011-.228a8.233 8.233 0 0 1-.959-3.837c0-2.896 1.538-5.425 3.843-7.187z"/></symbol><symbol id="icon-check" viewBox="0 0 32 32"><path fill="#ff3f3a" style="fill:var(--color2,#ff3f3a)" d="M16 30.667c8.087 0 14.667-6.579 14.667-14.667 0-1.396-.195-2.771-.581-4.089a1.222 1.222 0 1 0-2.346.686c.32 1.095.482 2.24.482 3.403 0 6.739-5.483 12.222-12.222 12.222S3.778 22.739 3.778 16 9.261 3.778 16 3.778c2.449 0 4.806.716 6.815 2.071a1.222 1.222 0 0 0 1.366-2.027A14.574 14.574 0 0 0 16 1.334c-8.087 0-14.667 6.579-14.667 14.667S7.913 30.668 16 30.668z"/><path fill="#ff3f3a" style="fill:var(--color2,#ff3f3a)" d="M29.723 3.058 15.999 16.781l-4.391-4.39a1.332 1.332 0 1 0-1.885 1.885l5.333 5.333c.261.261.601.391.943.391s.682-.13.943-.391L31.609 4.942a1.332 1.332 0 1 0-1.885-1.885z"/></symbol><symbol id="icon-Clock" viewBox="0 0 30 32"><path fill="#787a80" style="fill:var(--color1,#787a80)" d="M16.313 9.097a1.255 1.255 0 0 0-2.51 0v6.902c0 .333.132.652.368.887l3.765 3.765a1.255 1.255 0 0 0 1.775-1.775l-3.397-3.397V9.097z"/><path fill="#787a80" style="fill:var(--color1,#787a80)" d="M15.059 2.195c-7.624 0-13.804 6.18-13.804 13.804s6.18 13.804 13.804 13.804c7.624 0 13.804-6.18 13.804-13.804S22.683 2.195 15.059 2.195zM3.764 15.999c0-6.238 5.057-11.294 11.294-11.294s11.294 5.057 11.294 11.294c0 6.238-5.057 11.294-11.294 11.294S3.764 22.237 3.764 15.999z"/></symbol><symbol id="icon-Convert" viewBox="0 0 32 32"><path fill="#424551" style="fill:var(--color4,#424551)" d="M2.799 2.667c.736 0 1.333.597 1.333 1.333v5.915a13.33 13.33 0 0 1 11.867-7.248c5.807 0 10.745 3.712 12.574 8.889a1.333 1.333 0 0 1-2.514.888c-1.465-4.145-5.418-7.111-10.06-7.111a10.663 10.663 0 0 0-9.24 5.333h4.04a1.333 1.333 0 0 1 0 2.666h-8a1.333 1.333 0 0 1-1.333-1.333v-8c0-.736.597-1.333 1.333-1.333zM4.236 18.743a1.333 1.333 0 0 1 1.701.813c1.465 4.145 5.418 7.111 10.06 7.111 3.947 0 7.395-2.144 9.24-5.333h-4.04a1.333 1.333 0 0 1 0-2.666h8c.736 0 1.333.597 1.333 1.333v8a1.333 1.333 0 0 1-2.666 0v-5.915a13.33 13.33 0 0 1-11.867 7.248c-5.808 0-10.745-3.712-12.574-8.889a1.333 1.333 0 0 1 .813-1.701z"/></symbol><symbol id="icon-Cross" viewBox="0 0 32 32"><path fill="#787a80" style="fill:var(--color1,#787a80)" d="M5.724 5.724a1.333 1.333 0 0 1 1.886 0l8.391 8.391 8.391-8.391a1.333 1.333 0 1 1 1.886 1.886l-8.391 8.391 8.391 8.391a1.333 1.333 0 1 1-1.886 1.886l-8.391-8.391-8.391 8.391a1.333 1.333 0 1 1-1.886-1.886l8.391-8.391L5.724 7.61a1.333 1.333 0 0 1 0-1.886z"/></symbol><symbol id="icon-Down-chevron" viewBox="0 0 32 32"><path fill="#424551" style="fill:var(--color4,#424551)" d="M26.276 11.057a1.333 1.333 0 0 1 0 1.886l-9.333 9.333a1.333 1.333 0 0 1-1.886 0l-9.333-9.333a1.333 1.333 0 1 1 1.886-1.886l8.391 8.391 8.39-8.391a1.333 1.333 0 0 1 1.886 0z"/></symbol><symbol id="icon-Eye" viewBox="0 0 32 32"><path fill="#424551" style="fill:var(--color4,#424551)" d="M3.522 11.357c3.605-3.008 7.756-4.691 12.146-4.691s8.54 1.683 12.146 4.691a1.333 1.333 0 1 0 1.708-2.048c-4.009-3.345-8.748-5.31-13.854-5.31S5.823 5.964 1.814 9.309a1.335 1.335 0 0 0 1.708 2.048z"/><path fill="#424551" style="fill:var(--color4,#424551)" d="M5.468 12.919C7.866 10.894 11.286 9 15.167 9s7.301 1.894 9.699 3.919c1.209 1.021 2.2 2.109 2.9 3.08.35.485.641.961.851 1.402.193.405.383.917.383 1.432s-.19 1.027-.383 1.432c-.21.441-.501.917-.851 1.402-.7.972-1.691 2.06-2.9 3.08-2.398 2.024-5.818 3.919-9.699 3.919s-7.301-1.894-9.699-3.919c-1.209-1.021-2.2-2.109-2.9-3.08a9.253 9.253 0 0 1-.851-1.402c-.193-.405-.383-.917-.383-1.432s.19-1.027.383-1.432c.21-.441.501-.917.851-1.402.7-.972 1.692-2.06 2.9-3.08zM4.01 18.833c.013.045.045.138.115.287.123.259.323.595.606.988.565.783 1.404 1.713 2.457 2.602C9.314 24.505 12.144 26 15.167 26s5.853-1.495 7.979-3.29c1.053-.889 1.893-1.819 2.457-2.602.283-.393.483-.729.606-.988.071-.149.102-.242.115-.287a2.205 2.205 0 0 0-.115-.287 6.653 6.653 0 0 0-.606-.988c-.565-.783-1.404-1.713-2.457-2.602a16.425 16.425 0 0 0-1.43-1.082 6.833 6.833 0 1 1-13.096 0c-.505.34-.983.704-1.43 1.082-1.053.889-1.893 1.819-2.457 2.602a6.653 6.653 0 0 0-.606.988 1.933 1.933 0 0 0-.115.287zm6.991-3a4.167 4.167 0 1 1 8.334 0 4.167 4.167 0 0 1-8.334 0z"/></symbol><symbol id="icon-facebook" viewBox="0 0 32 32"><path d="m23.417 1.339-3.703-.006c-4.16 0-6.849 2.833-6.849 7.219v3.328H9.142a.59.59 0 0 0-.582.598v4.823c0 .33.261.598.582.598h3.723v12.169a.59.59 0 0 0 .582.598h4.858a.59.59 0 0 0 .582-.598V17.899h4.353a.59.59 0 0 0 .582-.598l.002-4.823c0-.159-.062-.311-.171-.423s-.258-.175-.412-.175h-4.355V9.058c0-1.356.315-2.045 2.034-2.045l2.495-.001a.59.59 0 0 0 .582-.598V1.936a.59.59 0 0 0-.581-.598z"/></symbol><symbol id="icon-Files" viewBox="0 0 30 32"><path fill="#424551" style="fill:var(--color4,#424551)" d="M10.04 17.884c0-.693.562-1.255 1.255-1.255h7.53a1.255 1.255 0 0 1 0 2.51h-7.529a1.255 1.255 0 0 1-1.255-1.255zM10.04 22.59c0-.693.562-1.255 1.255-1.255h3.765a1.255 1.255 0 0 1 0 2.51h-3.765a1.255 1.255 0 0 1-1.255-1.255z"/><path fill="#424551" style="fill:var(--color4,#424551)" d="M11.348 2.879c.235-.235.555-.368.887-.368h8.471a5.02 5.02 0 0 1 5.019 5.02v16.941a5.019 5.019 0 0 1-5.019 5.019H9.412a5.02 5.02 0 0 1-5.02-5.02V10.353c0-.333.132-.652.368-.887l6.588-6.588zm.574 2.975v4.186H7.736l4.186-4.186zm-5.02 6.696v11.921a2.51 2.51 0 0 0 2.51 2.51h11.294a2.51 2.51 0 0 0 2.51-2.51V7.53a2.51 2.51 0 0 0-2.51-2.51h-6.275v6.275c0 .693-.562 1.255-1.255 1.255H6.902z"/></symbol><symbol id="icon-Google" viewBox="0 0 32 32"><path fill="#787a80" style="fill:var(--color1,#787a80)" d="M16.281 14.004h13.167c.145.811.218 1.586.218 2.325 0 2.627-.551 4.973-1.653 7.038s-2.673 3.678-4.713 4.84-4.38 1.744-7.02 1.744c-1.901 0-3.711-.366-5.43-1.099S7.647 27.13 6.4 25.883c-1.247-1.247-2.237-2.73-2.969-4.45s-1.099-3.529-1.099-5.43c0-1.901.366-3.711 1.099-5.43S5.153 7.37 6.4 6.123c1.247-1.247 2.73-2.237 4.45-2.969s3.529-1.099 5.43-1.099c3.632 0 6.75 1.217 9.353 3.651l-3.796 3.651c-1.489-1.441-3.342-2.161-5.557-2.161-1.562 0-3.006.394-4.332 1.18s-2.376 1.856-3.151 3.206c-.775 1.35-1.162 2.824-1.162 4.422s.387 3.072 1.162 4.422 1.825 2.419 3.151 3.206a8.335 8.335 0 0 0 4.332 1.18c1.053 0 2.022-.145 2.906-.436s1.61-.654 2.179-1.09 1.065-.932 1.489-1.489c.424-.557.736-1.084.935-1.58s.336-.969.409-1.417h-7.919v-4.795z"/></symbol><symbol id="icon-grid" viewBox="0 0 32 32"><path fill="#424551" style="fill:var(--color4,#424551)" d="M1.333 4.666a3.333 3.333 0 0 1 3.333-3.333h6.667a3.333 3.333 0 0 1 3.333 3.333v6.667a3.333 3.333 0 0 1-3.333 3.333H4.666a3.333 3.333 0 0 1-3.333-3.333V4.666zm3.334-.667A.667.667 0 0 0 4 4.666v6.667c0 .368.298.667.667.667h6.667a.667.667 0 0 0 .667-.667V4.666a.667.667 0 0 0-.667-.667H4.667zM1.333 20.666a3.333 3.333 0 0 1 3.333-3.333h6.667a3.333 3.333 0 0 1 3.333 3.333v6.667a3.333 3.333 0 0 1-3.333 3.333H4.666a3.333 3.333 0 0 1-3.333-3.333v-6.667zM4.667 20a.667.667 0 0 0-.667.667v6.667c0 .368.298.667.667.667h6.667a.667.667 0 0 0 .667-.667v-6.667a.667.667 0 0 0-.667-.667H4.667zM17.333 4.666a3.333 3.333 0 0 1 3.333-3.333h6.667a3.333 3.333 0 0 1 3.333 3.333v6.667a3.333 3.333 0 0 1-3.333 3.333h-6.667a3.333 3.333 0 0 1-3.333-3.333V4.666zm3.334-.667a.667.667 0 0 0-.667.667v6.667c0 .368.298.667.667.667h6.667a.667.667 0 0 0 .667-.667V4.666a.667.667 0 0 0-.667-.667h-6.667zM17.333 20.666a3.333 3.333 0 0 1 3.333-3.333h6.667a3.333 3.333 0 0 1 3.333 3.333v6.667a3.333 3.333 0 0 1-3.333 3.333h-6.667a3.333 3.333 0 0 1-3.333-3.333v-6.667zM20.667 20a.667.667 0 0 0-.667.667v6.667c0 .368.298.667.667.667h6.667a.667.667 0 0 0 .667-.667v-6.667a.667.667 0 0 0-.667-.667h-6.667z"/></symbol><symbol id="icon-heart" viewBox="0 0 32 32"><path d="M15.999 26.543c-6.132-3.493-9.552-6.964-11.206-9.976-1.693-3.083-1.545-5.679-.606-7.522 1.931-3.788 7.421-4.999 10.766-.768L15.999 9.6l1.046-1.323c3.346-4.231 8.836-3.019 10.767.768.939 1.843 1.087 4.439-.606 7.522-1.654 3.012-5.074 6.483-11.207 9.976zM16 5.475C11.294 1.004 4.353 2.852 1.812 7.835c-1.394 2.735-1.413 6.27.644 10.016 2.039 3.713 6.104 7.633 12.898 11.388l.645.356.645-.356c6.795-3.755 10.86-7.675 12.899-11.388 2.057-3.746 2.038-7.281.644-10.016-2.54-4.983-9.482-6.831-14.188-2.36z"/></symbol><symbol id="icon-ic-calendar" viewBox="0 0 32 32"><path fill="#ff3f3a" style="fill:var(--color2,#ff3f3a)" d="M29.087 11.808a.63.63 0 0 0-.884 0 .63.63 0 0 0 0 .884.63.63 0 0 0 .884 0 .63.63 0 0 0 0-.884z"/><path fill="#ff3f3a" style="fill:var(--color2,#ff3f3a)" d="M28.521 4.625h-.716a.622.622 0 0 0 .179-.438v-.813c0-1.172-.953-2.125-2.125-2.125s-2.125.953-2.125 2.125v1.25h-5.796a.622.622 0 0 0 .179-.438v-.813c0-1.172-.953-2.125-2.125-2.125s-2.125.953-2.125 2.125v1.25H8.071a.622.622 0 0 0 .179-.438v-.813c0-1.172-.953-2.125-2.125-2.125S4 2.2 4 3.372v1.25h-.521A3.483 3.483 0 0 0 0 8.101v20.771c0 1.034.841 1.875 1.875 1.875h10.792a.625.625 0 0 0 0-1.25H1.875a.625.625 0 0 1-.625-.625v-16h24.334a.625.625 0 0 0 0-1.25H1.25V8.101c0-1.229 1-2.229 2.229-2.229H4v1.51c0 1.172.953 2.125 2.125 2.125S8.25 8.554 8.25 7.382a.625.625 0 0 0-1.25 0 .876.876 0 0 1-1.75 0v-1.51h8.617v1.51c0 1.172.953 2.125 2.125 2.125s2.125-.953 2.125-2.125a.625.625 0 0 0-1.25 0 .876.876 0 0 1-1.75 0v-1.51h8.617v1.51c0 1.172.953 2.125 2.125 2.125s2.125-.953 2.125-2.125a.625.625 0 0 0-1.25 0 .876.876 0 0 1-1.75 0v-1.51h3.537c1.229 0 2.229 1 2.229 2.229v20.771c0 .345-.28.625-.625.625H19.333a.625.625 0 0 0 0 1.25h10.792A1.877 1.877 0 0 0 32 28.872V8.101a3.483 3.483 0 0 0-3.479-3.479zm-23.271 0v-1.25c0-.482.393-.875.875-.875S7 2.893 7 3.375v.813c0 .17.068.325.179.438H5.25zm9.867 0v-1.25a.876.876 0 0 1 1.75 0v.813c0 .17.068.325.179.438h-1.929zm9.867 0v-1.25a.876.876 0 0 1 1.75 0v.813c0 .17.068.325.179.438h-1.929z"/><path fill="#ff3f3a" style="fill:var(--color2,#ff3f3a)" d="M6 14.875c-1.447 0-2.625 1.178-2.625 2.625S4.553 20.125 6 20.125s2.625-1.178 2.625-2.625S7.447 14.875 6 14.875zm0 4c-.758 0-1.375-.617-1.375-1.375S5.242 16.125 6 16.125s1.375.617 1.375 1.375S6.758 18.875 6 18.875zM26 14.875c-1.447 0-2.625 1.178-2.625 2.625s1.178 2.625 2.625 2.625 2.625-1.178 2.625-2.625-1.178-2.625-2.625-2.625zm0 4c-.758 0-1.375-.617-1.375-1.375s.617-1.375 1.375-1.375 1.375.617 1.375 1.375-.617 1.375-1.375 1.375zM19.334 14.875c-1.447 0-2.625 1.178-2.625 2.625s1.178 2.625 2.625 2.625 2.625-1.178 2.625-2.625-1.178-2.625-2.625-2.625zm0 4c-.758 0-1.375-.617-1.375-1.375s.617-1.375 1.375-1.375 1.375.617 1.375 1.375-.617 1.375-1.375 1.375zM12.666 14.875c-1.447 0-2.625 1.178-2.625 2.625s1.178 2.625 2.625 2.625 2.625-1.178 2.625-2.625-1.178-2.625-2.625-2.625zm0 4c-.758 0-1.375-.617-1.375-1.375s.617-1.375 1.375-1.375 1.375.617 1.375 1.375-.617 1.375-1.375 1.375zM6 22.5c-1.447 0-2.625 1.178-2.625 2.625S4.553 27.75 6 27.75s2.625-1.178 2.625-2.625S7.447 22.5 6 22.5zm0 4c-.758 0-1.375-.617-1.375-1.375S5.242 23.75 6 23.75s1.375.617 1.375 1.375S6.758 26.5 6 26.5zM19.334 22.5c-1.447 0-2.625 1.178-2.625 2.625s1.178 2.625 2.625 2.625 2.625-1.178 2.625-2.625-1.178-2.625-2.625-2.625zm0 4c-.758 0-1.375-.617-1.375-1.375s.617-1.375 1.375-1.375 1.375.617 1.375 1.375-.617 1.375-1.375 1.375zM26 22.5c-1.447 0-2.625 1.178-2.625 2.625S24.553 27.75 26 27.75s2.625-1.178 2.625-2.625S27.447 22.5 26 22.5zm0 4c-.758 0-1.375-.617-1.375-1.375S25.242 23.75 26 23.75s1.375.617 1.375 1.375S26.758 26.5 26 26.5zM12.666 22.5c-1.447 0-2.625 1.178-2.625 2.625s1.178 2.625 2.625 2.625 2.625-1.178 2.625-2.625-1.178-2.625-2.625-2.625zm0 4c-.758 0-1.375-.617-1.375-1.375s.617-1.375 1.375-1.375 1.375.617 1.375 1.375-.617 1.375-1.375 1.375zM16.442 29.683a.63.63 0 0 0-.884 0 .625.625 0 1 0 .884 0z"/></symbol><symbol id="icon-ic-chat" viewBox="0 0 32 32"><path fill="#ff3f3a" style="fill:var(--color2,#ff3f3a)" d="M30.233 17.628A11.447 11.447 0 0 0 32 11.5C32 5.159 26.841 0 20.5 0a11.48 11.48 0 0 0-6.001 1.688.624.624 0 1 0 .653 1.065A10.227 10.227 0 0 1 20.5 1.249c5.652 0 10.25 4.598 10.25 10.25 0 2.05-.603 4.028-1.744 5.721a.627.627 0 0 0 .017.723l.685 2.556-2.749-.737a.626.626 0 0 0-.524.094 10.18 10.18 0 0 1-5.935 1.892c-1.221 0-2.415-.213-3.55-.633a8.655 8.655 0 0 0-6.066-6.066 10.2 10.2 0 0 1-.633-3.551c0-1.914.531-3.781 1.535-5.399a.626.626 0 0 0-1.062-.66A11.47 11.47 0 0 0 9 11.497c0 1.124.161 2.228.48 3.292a8.618 8.618 0 0 0-.855-.042C3.869 14.747 0 18.616 0 23.372c0 1.707.493 3.345 1.43 4.758l-.669 2.497a.625.625 0 0 0 .766.766l2.558-.686a8.588 8.588 0 0 0 4.54 1.291 8.6 8.6 0 0 0 4.621-1.341.626.626 0 0 0-.671-1.055 7.352 7.352 0 0 1-3.951 1.146 7.34 7.34 0 0 1-4.088-1.236.627.627 0 0 0-.509-.084l-1.78.477.463-1.729a.625.625 0 0 0-.095-.525 7.328 7.328 0 0 1-1.367-4.278c0-4.067 3.308-7.375 7.375-7.375s7.375 3.308 7.375 7.375c0 .868-.149 1.718-.444 2.526a.625.625 0 0 0 1.174.428 8.587 8.587 0 0 0 .477-3.808 11.48 11.48 0 0 0 3.292.479c2.305 0 4.516-.675 6.415-1.954l3.515.942a.625.625 0 0 0 .766-.766l-.963-3.594z"/><path fill="#ff3f3a" style="fill:var(--color2,#ff3f3a)" d="M23.722 12.831h-6.366a.625.625 0 0 0-.625.625c0 2.1 1.708 3.808 3.808 3.808s3.808-1.708 3.808-3.808a.625.625 0 0 0-.625-.625zm-3.183 3.183a2.564 2.564 0 0 1-2.481-1.933h4.961a2.564 2.564 0 0 1-2.481 1.933zM25.405 9.364a.625.625 0 0 0-.86-.204l-.082.05a.624.624 0 0 0 .329 1.157c.112 0 .226-.03.328-.093l.08-.049a.625.625 0 0 0 .204-.86zM16.818 9.364a.625.625 0 0 0-.86-.204l-.081.05a.624.624 0 0 0 .329 1.157c.112 0 .226-.03.328-.093l.08-.049a.625.625 0 0 0 .204-.86zM5.629 22.933a.63.63 0 0 0-.884 0 .63.63 0 0 0 0 .884.63.63 0 0 0 .884 0 .63.63 0 0 0 0-.884zM9.066 22.933a.63.63 0 0 0-.884 0 .63.63 0 0 0 0 .884c.116.116.278.183.442.183s.326-.067.442-.183a.63.63 0 0 0 0-.884zM12.504 22.933c-.116-.116-.278-.183-.442-.183s-.326.067-.442.183a.63.63 0 0 0 0 .884c.116.116.278.183.442.183s.326-.067.442-.183a.63.63 0 0 0 0-.884zM15.302 27.945c-.116-.116-.278-.183-.442-.183s-.326.067-.442.183c-.116.116-.183.278-.183.442s.067.326.183.442a.63.63 0 0 0 .884 0c.116-.116.183-.278.183-.442s-.067-.326-.183-.442zM13.273 3.348a.627.627 0 0 0-1.067.442.625.625 0 1 0 1.067-.442z"/></symbol><symbol id="icon-ic-structure" viewBox="0 0 32 32"><path fill="#ff3f3a" style="fill:var(--color2,#ff3f3a)" d="M21.868 15.746a.63.63 0 0 0-.884 0 .63.63 0 0 0 0 .884.63.63 0 0 0 .884 0 .63.63 0 0 0 0-.884z"/><path fill="#ff3f3a" style="fill:var(--color2,#ff3f3a)" d="M25.987 1.695H5.997a.625.625 0 0 0-.625.625v9.995c0 .345.28.625.625.625h9.37v2.624H4.695a.625.625 0 0 0-.625.625v4.873H.624a.625.625 0 0 0-.625.625v7.996c0 .345.28.625.625.625H8.62c.345 0 .625-.28.625-.625v-7.996a.625.625 0 0 0-.625-.625h-3.3v-4.248h10.047v4.248h-3.365a.625.625 0 0 0-.625.625v7.996c0 .345.28.625.625.625h7.996c.345 0 .625-.28.625-.625v-7.996a.625.625 0 0 0-.625-.625h-3.381v-4.248h2.499a.625.625 0 0 0 0-1.25h-2.499V12.94h9.37c.345 0 .625-.28.625-.625V2.32a.625.625 0 0 0-.625-.625zM7.996 22.309v6.747H1.249v-6.747h6.747zm11.377 0v6.747h-6.747v-6.747h6.747zm5.989-10.619H6.621V5.443h4.232a.625.625 0 0 0 0-1.25H6.621V2.944h18.741v8.746z"/><path fill="#ff3f3a" style="fill:var(--color2,#ff3f3a)" d="M31.376 21.06h-3.462v-4.873a.625.625 0 0 0-.625-.625h-3.425a.625.625 0 0 0 0 1.25h2.801v4.248h-3.284a.625.625 0 0 0-.625.625v7.996c0 .345.28.625.625.625h7.996c.345 0 .625-.28.625-.625v-7.996a.625.625 0 0 0-.625-.625zm-.625 7.996h-6.747v-6.747h6.747v6.747zM13.923 4.376a.63.63 0 0 0-.884 0 .628.628 0 0 0 0 .884c.117.116.278.183.442.183s.325-.067.442-.183a.63.63 0 0 0 0-.884z"/></symbol><symbol id="icon-ic-target" viewBox="0 0 32 32"><path fill="#ff3f3a" style="fill:var(--color2,#ff3f3a)" d="M22.199 24.667a.625.625 0 0 0-.892-.008l-.006.006a.626.626 0 0 0 .43 1.08.629.629 0 0 0 .443-.186.626.626 0 0 0 .025-.892z"/><path fill="#ff3f3a" style="fill:var(--color2,#ff3f3a)" d="M27.858 12.635a.624.624 0 1 0-1.172.434c.54 1.457.813 2.99.813 4.558 0 7.236-5.887 13.123-13.123 13.123a13.05 13.05 0 0 1-7.465-2.328.625.625 0 1 0-.712 1.028 14.288 14.288 0 0 0 8.177 2.551c3.839 0 7.448-1.495 10.163-4.21s4.21-6.324 4.21-10.163c0-1.717-.3-3.396-.891-4.992zM19.215 4.089a14.342 14.342 0 0 0-4.84-.835c-3.839 0-7.449 1.495-10.163 4.21S.002 13.788.002 17.627c0 2.977.902 5.834 2.609 8.26a.624.624 0 0 0 .871.151.626.626 0 0 0 .152-.871 13.04 13.04 0 0 1-2.382-7.541c0-7.236 5.887-13.123 13.123-13.123 1.517 0 3.004.256 4.419.762a.625.625 0 0 0 .421-1.177z"/><path fill="#ff3f3a" style="fill:var(--color2,#ff3f3a)" d="M31.95 5.183a.625.625 0 0 0-.577-.386h-3.284l.353-.353a.625.625 0 0 0-.884-.884l-.358.358V.626a.627.627 0 0 0-1.067-.442l-5.509 5.509a.625.625 0 0 0-.183.442v2.168a11.003 11.003 0 0 0-6.067-1.798c-6.133 0-11.123 4.99-11.123 11.123s4.99 11.123 11.123 11.123a11.11 11.11 0 0 0 5.76-1.605.624.624 0 1 0-.648-1.068 9.854 9.854 0 0 1-5.112 1.424c-5.444 0-9.874-4.429-9.874-9.874s4.429-9.874 9.874-9.874c2.223 0 4.32.721 6.067 2.084v.839l-1.139 1.139a7.593 7.593 0 0 0-4.928-1.812c-4.204 0-7.624 3.42-7.624 7.624s3.42 7.624 7.624 7.624 7.624-3.42 7.624-7.624a7.588 7.588 0 0 0-1.812-4.928l1.143-1.143h.831a9.897 9.897 0 0 1 2.087 6.071 9.855 9.855 0 0 1-1.476 5.196.624.624 0 1 0 1.063.658 11.094 11.094 0 0 0 1.664-5.855c0-2.159-.634-4.275-1.803-6.071h2.168a.625.625 0 0 0 .442-.183l5.509-5.509a.625.625 0 0 0 .136-.681zM20.749 17.627c0 3.515-2.859 6.374-6.374 6.374s-6.374-2.859-6.374-6.374 2.859-6.374 6.374-6.374c1.533 0 2.941.544 4.042 1.449l-1.423 1.423a4.347 4.347 0 0 0-2.618-.872c-2.412 0-4.374 1.962-4.374 4.374s1.962 4.374 4.374 4.374a4.379 4.379 0 0 0 4.374-4.374c0-.981-.325-1.888-.872-2.618l1.423-1.423a6.345 6.345 0 0 1 1.449 4.042zm-6.816.442a.623.623 0 0 0 .884 0l2.164-2.164c.328.494.519 1.086.519 1.722 0 1.723-1.402 3.125-3.125 3.125s-3.125-1.402-3.125-3.125 1.402-3.125 3.125-3.125c.636 0 1.228.191 1.722.519l-2.164 2.164a.625.625 0 0 0 0 .884zm7.759-8.643V6.392l4.259-4.259v3.034l-4.259 4.259zm3.913.88H22.58l4.259-4.259h3.025l-4.259 4.259zM5.083 26.893a.63.63 0 0 0-.884 0 .625.625 0 1 0 .884 0z"/></symbol><symbol id="icon-instagram" viewBox="0 0 32 32"><path d="M29.307 10.507c-.062-1.417-.292-2.391-.62-3.235a6.52 6.52 0 0 0-1.542-2.365 6.574 6.574 0 0 0-2.36-1.537c-.849-.328-1.818-.557-3.235-.62-1.428-.068-1.881-.083-5.501-.083s-4.074.016-5.496.078c-1.417.062-2.391.292-3.235.62a6.52 6.52 0 0 0-2.365 1.542 6.574 6.574 0 0 0-1.537 2.36c-.328.849-.557 1.818-.62 3.235-.068 1.427-.083 1.881-.083 5.501s.016 4.074.078 5.496c.062 1.417.292 2.391.62 3.235a6.585 6.585 0 0 0 1.542 2.365 6.574 6.574 0 0 0 2.36 1.537c.849.328 1.818.557 3.235.62 1.422.063 1.875.078 5.496.078s4.074-.015 5.496-.078c1.417-.062 2.391-.292 3.235-.62a6.822 6.822 0 0 0 3.902-3.902c.328-.849.557-1.818.62-3.235.063-1.422.078-1.875.078-5.496s-.005-4.074-.068-5.496zm-2.401 10.887c-.057 1.302-.276 2.006-.459 2.474a4.422 4.422 0 0 1-2.532 2.532c-.469.182-1.177.401-2.475.458-1.406.063-1.828.078-5.386.078s-3.985-.015-5.387-.078c-1.302-.057-2.006-.276-2.474-.458a4.103 4.103 0 0 1-1.531-.995 4.143 4.143 0 0 1-.995-1.531c-.182-.469-.401-1.177-.458-2.474-.063-1.407-.078-1.829-.078-5.387s.015-3.985.078-5.386c.057-1.302.276-2.006.458-2.474a4.066 4.066 0 0 1 1-1.532 4.143 4.143 0 0 1 1.531-.995c.469-.182 1.177-.401 2.474-.458 1.407-.062 1.829-.078 5.386-.078 3.563 0 3.985.016 5.387.078 1.302.057 2.006.276 2.474.458a4.09 4.09 0 0 1 1.531.995c.443.432.781.953.995 1.532.182.469.401 1.177.459 2.474.062 1.407.078 1.828.078 5.386s-.016 3.975-.078 5.381z"/><path d="M16.049 9.152c-3.782 0-6.85 3.068-6.85 6.85s3.068 6.85 6.85 6.85c3.782 0 6.85-3.068 6.85-6.85s-3.068-6.85-6.85-6.85zm0 11.294a4.445 4.445 0 0 1 0-8.888 4.444 4.444 0 0 1 0 8.888zM24.77 8.881a1.6 1.6 0 1 1-3.198 0 1.6 1.6 0 0 1 3.198 0z"/></symbol><symbol id="icon-iPhone" viewBox="0 0 32 32"><path d="M11.334 3.897a2 2 0 0 0-2 2v20.208a2 2 0 0 0 2 2h9.333a2 2 0 0 0 2-2V5.897a2 2 0 0 0-2-2h-.111l-.325.779c-.207.497-.692.82-1.231.82h-6a1.335 1.335 0 0 1-1.231-.82l-.325-.779h-.111zm-4.667 2a4.667 4.667 0 0 1 4.667-4.667h9.333a4.667 4.667 0 0 1 4.667 4.667v20.208a4.667 4.667 0 0 1-4.667 4.667h-9.333a4.667 4.667 0 0 1-4.667-4.667V5.897z"/></symbol><symbol id="icon-layouts" viewBox="0 0 32 32"><path d="M15.404 1.473a1.332 1.332 0 0 1 1.193 0L29.93 8.14a1.334 1.334 0 0 1 0 2.386l-13.333 6.667a1.332 1.332 0 0 1-1.193 0L2.071 10.526a1.334 1.334 0 0 1 0-2.386l13.333-6.667zM5.648 9.332 16 14.508l10.352-5.176L16 4.156 5.648 9.332z"/><path d="M1.474 15.402a1.332 1.332 0 0 1 1.789-.596L16 21.174l12.737-6.368a1.334 1.334 0 0 1 1.193 2.385l-13.333 6.667a1.332 1.332 0 0 1-1.193 0L2.071 17.191a1.332 1.332 0 0 1-.596-1.789z"/><path d="M1.474 22.069a1.332 1.332 0 0 1 1.789-.596L16 27.842l12.737-6.369a1.334 1.334 0 0 1 1.193 2.385l-13.333 6.667a1.332 1.332 0 0 1-1.193 0L2.071 23.858a1.332 1.332 0 0 1-.596-1.789z"/></symbol><symbol id="icon-like" viewBox="0 0 32 32"><path d="M18.909 4.335a.526.526 0 0 0-.453.26l-.008.014-6.115 9.914v13.146h11.448a.523.523 0 0 0 .511-.41l.005-.021 3.4-13.28a.524.524 0 0 0-.514-.623H22c-.868 0-1.747-.29-2.386-.914-.672-.656-.984-1.596-.784-2.609l.958-4.851a.524.524 0 0 0-.514-.625h-.365zM9.667 27.668V15.477H4.942a.524.524 0 0 0-.524.52L4.333 27.14a.524.524 0 0 0 .524.528h4.81zm.589-14.857 5.907-9.576a3.192 3.192 0 0 1 2.746-1.567h.365a3.19 3.19 0 0 1 3.13 3.809l-.958 4.851c-.017.086-.006.126-.003.134s.009.026.034.049c.056.054.222.156.524.156h5.183a3.19 3.19 0 0 1 3.114 3.883l-.005.021-3.402 13.288a3.191 3.191 0 0 1-3.109 2.475H4.858a3.19 3.19 0 0 1-3.19-3.215l.085-11.143a3.19 3.19 0 0 1 3.19-3.166h5.314z"/></symbol><symbol id="icon-linkedIn" viewBox="0 0 32 32"><path d="m29.327 29.333.007-.001v-9.78c0-4.785-1.03-8.47-6.623-8.47-2.689 0-4.493 1.476-5.23 2.874h-.078v-2.428H12.1v17.803h5.522v-8.816c0-2.321.44-4.566 3.315-4.566 2.832 0 2.874 2.649 2.874 4.715v8.668h5.517zM3.107 11.53h5.529v17.803H3.107V11.53zM5.869 2.667c-1.768 0-3.202 1.434-3.202 3.202s1.434 3.232 3.202 3.232 3.202-1.464 3.202-3.232a3.204 3.204 0 0 0-3.202-3.202z"/></symbol><symbol id="icon-list" viewBox="0 0 32 32"><path fill="#ff3f3a" style="fill:var(--color2,#ff3f3a)" d="M1.333 4.666a3.333 3.333 0 0 1 3.333-3.333h22.667a3.333 3.333 0 0 1 3.333 3.333v6.667a3.333 3.333 0 0 1-3.333 3.333H4.666a3.333 3.333 0 0 1-3.333-3.333V4.666zm3.334-.667A.667.667 0 0 0 4 4.666v6.667c0 .368.298.667.667.667h22.667a.667.667 0 0 0 .667-.667V4.666a.667.667 0 0 0-.667-.667H4.667zM1.333 20.666a3.333 3.333 0 0 1 3.333-3.333h22.667a3.333 3.333 0 0 1 3.333 3.333v6.667a3.333 3.333 0 0 1-3.333 3.333H4.666a3.333 3.333 0 0 1-3.333-3.333v-6.667zM4.667 20a.667.667 0 0 0-.667.667v6.667c0 .368.298.667.667.667h22.667a.667.667 0 0 0 .667-.667v-6.667a.667.667 0 0 0-.667-.667H4.667z"/></symbol><symbol id="icon-mail" viewBox="0 0 32 32"><path d="M30.334 23.999V9.332a4 4 0 0 0-4-4H5.667a4 4 0 0 0-4 4v14.667a4 4 0 0 0 4 4h20.667a4 4 0 0 0 4-4zm-2.667-11.654v11.654c0 .736-.597 1.333-1.333 1.333H5.667a1.333 1.333 0 0 1-1.333-1.333V12.345l9.418 6.404a4 4 0 0 0 4.498 0l9.417-6.404zm-.015-3.215L16.75 16.543a1.331 1.331 0 0 1-1.499 0L4.349 9.13c.097-.64.65-1.131 1.318-1.131h20.667c.668 0 1.221.491 1.318 1.131z"/></symbol><symbol id="icon-mic" viewBox="0 0 30 32"><path fill="#424551" style="fill:var(--color4,#424551)" d="M7.78 8.973a7.278 7.278 0 0 1 14.556 0v6.024a7.278 7.278 0 0 1-14.557 0V8.973zm7.279-4.768a4.769 4.769 0 0 0-4.769 4.769v6.024a4.769 4.769 0 1 0 9.538 0V8.974a4.769 4.769 0 0 0-4.769-4.769z"/><path fill="#424551" style="fill:var(--color4,#424551)" d="M5.02 11.734c.693 0 1.255.562 1.255 1.255v2.008a8.784 8.784 0 0 0 17.568 0v-2.008a1.255 1.255 0 0 1 2.51 0v2.008c0 6.238-5.057 11.294-11.294 11.294S3.765 21.234 3.765 14.997v-2.008c0-.693.562-1.255 1.255-1.255z"/><path fill="#424551" style="fill:var(--color4,#424551)" d="M15.059 24.785c.693 0 1.255.562 1.255 1.255v1.757h2.761a1.255 1.255 0 0 1 0 2.51h-8.031a1.255 1.255 0 0 1 0-2.51h2.761V26.04c0-.693.562-1.255 1.255-1.255z"/></symbol><symbol id="icon-next-btn" viewBox="0 0 32 32"><path d="M19.724 9.057a1.333 1.333 0 0 1 1.886 0l6 6a1.333 1.333 0 0 1 0 1.886l-6 6a1.333 1.333 0 1 1-1.886-1.886l3.724-3.724H5.334a1.333 1.333 0 0 1 0-2.666h18.114l-3.724-3.724a1.333 1.333 0 0 1 0-1.886z"/></symbol><symbol id="icon-outline" viewBox="0 0 32 32"><path fill="#ff3f3a" style="fill:var(--color2,#ff3f3a)" d="M16 10.333a2.667 2.667 0 1 0 0 5.334 2.667 2.667 0 0 0 0-5.334zM10.667 13a5.333 5.333 0 1 1 10.666 0 5.333 5.333 0 0 1-10.666 0z"/><path fill="#ff3f3a" style="fill:var(--color2,#ff3f3a)" d="M16 4.333c-4.826 0-8.667 3.781-8.667 8.359 0 3.732 2.243 7.501 4.694 10.465a37.217 37.217 0 0 0 3.972 4.096 37.093 37.093 0 0 0 3.972-4.096c2.451-2.965 4.694-6.734 4.694-10.465 0-4.578-3.841-8.359-8.667-8.359zM16 29l-.826 1.047-.003-.003-.008-.006-.026-.021a29.18 29.18 0 0 1-.43-.356 35.057 35.057 0 0 1-1.178-1.047 40.097 40.097 0 0 1-3.558-3.757c-2.549-3.082-5.306-7.467-5.306-12.165 0-6.128 5.114-11.026 11.333-11.026s11.333 4.897 11.333 11.026c0 4.698-2.757 9.083-5.306 12.165a39.847 39.847 0 0 1-4.736 4.804 18.305 18.305 0 0 1-.43.356l-.026.021-.008.006-.002.002s-.002.001-.827-1.046zm0 0 .825 1.047a1.334 1.334 0 0 1-1.651-.001L16 28.999z"/></symbol><symbol id="icon-play" viewBox="0 0 30 32"><path fill="#424551" style="fill:var(--color4,#424551)" d="M20.163 14.005a2.51 2.51 0 0 1 0 3.988l-5.747 4.393c-1.652 1.262-4.034.085-4.034-1.994v-8.785c0-2.079 2.382-3.256 4.034-1.994l5.747 4.393zm-1.524 1.994-5.747-4.393v8.785l5.747-4.393z"/><path fill="#424551" style="fill:var(--color4,#424551)" d="M15.059 4.705c-6.238 0-11.294 5.057-11.294 11.294s5.057 11.294 11.294 11.294 11.294-5.056 11.294-11.294S21.296 4.705 15.059 4.705zM1.255 15.999c0-7.624 6.18-13.804 13.804-13.804s13.804 6.18 13.804 13.804c0 7.624-6.18 13.804-13.804 13.804S1.255 23.623 1.255 15.999z"/></symbol><symbol id="icon-play-video" viewBox="0 0 32 32"><path d="M11.525 16.003v7.203l.107-.063c.488-.285 10.36-5.98 11.235-6.482.848-.485 1.12-.655 1.1-.675a452.517 452.517 0 0 0-4.093-2.373l-6.15-3.55-2.143-1.235-.057-.03v7.205z"/></symbol><symbol id="icon-prev-btn" viewBox="0 0 32 32"><path fill="#424551" style="fill:var(--color4,#424551)" d="M12.276 22.943a1.333 1.333 0 0 1-1.886 0l-6-6a1.333 1.333 0 0 1 0-1.886l6-6a1.333 1.333 0 1 1 1.886 1.886l-3.724 3.724h18.114a1.333 1.333 0 0 1 0 2.666H8.552l3.724 3.724a1.333 1.333 0 0 1 0 1.886z"/></symbol><symbol id="icon-profile" viewBox="0 0 32 32"><path d="M16 4.334a4.667 4.667 0 1 0 0 9.334 4.667 4.667 0 0 0 0-9.334zM8.667 9.001a7.333 7.333 0 1 1 14.666 0A7.333 7.333 0 0 1 8.667 9zM8.139 20.334c-.924 0-1.647.45-1.94 1.097-.406.895-.774 1.961-.86 2.971-.039.452.15.785.409.946 1.372.852 4.552 2.319 10.253 2.319s8.88-1.467 10.253-2.319c.26-.161.448-.494.409-.946-.087-1.011-.454-2.076-.86-2.971-.293-.647-1.016-1.097-1.94-1.097H8.14zm-4.369-.005c.811-1.787 2.621-2.662 4.369-2.662h15.723c1.748 0 3.558.875 4.369 2.662.466 1.027.965 2.407 1.089 3.845.112 1.31-.432 2.677-1.659 3.439-1.805 1.121-5.474 2.721-11.66 2.721s-9.855-1.6-11.66-2.721c-1.227-.762-1.771-2.13-1.659-3.439.123-1.438.623-2.818 1.089-3.845z"/></symbol><symbol id="icon-search" viewBox="0 0 32 32"><path fill="#9a9ca5" style="fill:var(--color3,#9a9ca5)" d="M14.5 4.333C8.885 4.333 4.333 8.885 4.333 14.5S8.885 24.667 14.5 24.667c2.805 0 5.343-1.134 7.184-2.973a10.133 10.133 0 0 0 2.983-7.194c0-5.615-4.552-10.167-10.167-10.167zM1.667 14.499c0-7.088 5.746-12.833 12.833-12.833s12.833 5.746 12.833 12.833c0 3.066-1.076 5.882-2.869 8.088l5.478 5.468a1.334 1.334 0 0 1-1.884 1.888l-5.481-5.471a12.783 12.783 0 0 1-8.077 2.86c-7.088 0-12.833-5.746-12.833-12.833z"/></symbol><symbol id="icon-star" viewBox="0 0 32 32"><path d="M13.559 2.934c.926-2.136 3.956-2.136 4.882 0l2.802 6.462 7.012.668c2.318.221 3.254 3.102 1.509 4.643l-5.28 4.662 1.531 6.875c.506 2.273-1.945 4.053-3.95 2.87L16 25.533l-6.065 3.581c-2.005 1.184-4.456-.597-3.95-2.87l1.531-6.875-5.28-4.662c-1.745-1.541-.809-4.422 1.509-4.643l7.012-.668 2.802-6.462zm5.243 7.521L16 3.993l-2.802 6.462a2.662 2.662 0 0 1-2.189 1.59l-7.012.668 5.28 4.662a2.66 2.66 0 0 1 .836 2.573l-1.531 6.875 6.065-3.581a2.659 2.659 0 0 1 2.705 0l6.065 3.581-1.531-6.875a2.658 2.658 0 0 1 .836-2.573l5.28-4.662-7.012-.668a2.662 2.662 0 0 1-2.189-1.59z"/></symbol><symbol id="icon-telegram" viewBox="0 0 32 32"><path d="m12.844 20.242-.485 7.445c.694 0 .995-.325 1.355-.716l3.255-3.393 6.744 5.388c1.237.752 2.108.356 2.442-1.241l4.427-22.629.001-.001c.392-1.995-.661-2.775-1.866-2.285L2.695 13.678c-1.776.752-1.749 1.832-.302 2.321l6.653 2.257L24.499 7.708c.727-.525 1.388-.235.845.291l-12.5 12.244z"/></symbol><symbol id="icon-twitter" viewBox="0 0 32 32"><path d="M30 7.696a11.866 11.866 0 0 1-3.298.866 5.575 5.575 0 0 0 2.525-3.041 11.895 11.895 0 0 1-3.65 1.335 5.847 5.847 0 0 0-4.192-1.737c-3.172 0-5.744 2.463-5.744 5.498 0 .431.051.851.149 1.253-4.773-.23-9.005-2.419-11.838-5.746a5.284 5.284 0 0 0-.777 2.764c0 1.908 1.015 3.592 2.555 4.577a5.941 5.941 0 0 1-2.602-.69v.069c0 2.664 1.981 4.887 4.607 5.393a6.06 6.06 0 0 1-1.513.193c-.371 0-.73-.035-1.081-.102.731 2.186 2.852 3.776 5.365 3.82-1.965 1.474-4.442 2.351-7.133 2.351-.464 0-.92-.027-1.37-.075a16.762 16.762 0 0 0 8.804 2.475c10.566 0 16.342-8.38 16.342-15.648l-.019-.712a11.216 11.216 0 0 0 2.873-2.841z"/></symbol><symbol id="icon-youTube" viewBox="0 0 32 32"><path d="M28.52 5.485C26.016 4.8 15.999 4.8 15.999 4.8s-10.016 0-12.521.659c-1.344.369-2.451 1.476-2.82 2.847-.659 2.504-.659 7.697-.659 7.697s0 5.219.659 7.697a4.011 4.011 0 0 0 2.821 2.821c2.53.685 12.521.685 12.521.685s10.016 0 12.52-.659a4.012 4.012 0 0 0 2.821-2.82C32 21.223 32 16.03 32 16.03s.026-5.219-.659-7.723a4.012 4.012 0 0 0-2.82-2.821zm-7.38 10.517-8.329 4.797v-9.595l8.329 4.797z"/></symbol></defs></svg>