<svg width="136" height="184" viewBox="0 0 136 184" fill="none" xmlns="http://www.w3.org/2000/svg">
<g opacity="0.8" clip-path="url(#clip0_2234_9590)">
<path d="M41.3574 177.974C42.8295 177.959 43.945 179.055 43.9604 180.532C43.9757 182.009 42.8831 183.128 41.4111 183.143C39.939 183.158 38.8235 182.062 38.8081 180.585C38.7928 179.108 40.008 177.988 41.3574 177.974Z" fill="#FFCF2D"/>
<path d="M41.1289 155.943C42.6009 155.927 43.7165 157.024 43.7318 158.5C43.7472 159.977 42.6546 161.097 41.1826 161.112C39.7105 161.127 38.5949 160.031 38.5796 158.554C38.5655 157.2 39.7795 155.957 41.1289 155.943Z" fill="#FFCF2D"/>
<path d="M40.9013 134.035C42.3734 134.02 43.489 135.116 43.5043 136.593C43.5196 138.07 42.4271 139.189 40.955 139.205C39.483 139.22 38.3674 138.124 38.3521 136.647C38.3367 135.17 39.5519 134.049 40.9013 134.035Z" fill="#FFCF2D"/>
<path d="M40.6723 112.003C42.1444 111.988 43.26 113.084 43.2753 114.561C43.2906 116.038 42.1981 117.157 40.726 117.172C39.254 117.188 38.1384 116.091 38.1231 114.615C38.1077 113.138 39.3229 112.017 40.6723 112.003Z" fill="#FFCF2D"/>
<path d="M40.4433 89.9718C41.9154 89.9566 43.0309 91.0528 43.0463 92.5298C43.0616 94.0067 41.9691 95.1259 40.497 95.1412C39.0249 95.1565 37.9094 94.0602 37.894 92.5833C37.88 91.2294 39.0939 89.9859 40.4433 89.9718Z" fill="#FFCF2D"/>
<path d="M40.2148 67.9406C41.6869 67.9253 42.8024 69.0216 42.8178 70.4985C42.8331 71.9755 41.7406 73.0947 40.2685 73.11C38.7964 73.1253 37.6809 72.029 37.6655 70.552C37.6502 69.0751 38.8654 67.9546 40.2148 67.9406Z" fill="#FFCF2D"/>
<path d="M39.9868 46.0324C41.4588 46.0171 42.5744 47.1133 42.5898 48.5903C42.6051 50.0673 41.5125 51.1865 40.0405 51.2018C38.5684 51.217 37.4528 50.1208 37.4375 48.6438C37.4222 47.1669 38.6374 46.0464 39.9868 46.0324Z" fill="#FFCF2D"/>
<path d="M39.7583 24.0012C41.2303 23.9859 42.3459 25.0821 42.3612 26.5591C42.3766 28.036 41.284 29.1552 39.812 29.1705C38.3399 29.1858 37.2243 28.0896 37.209 26.6126C37.1936 25.1356 38.4089 24.0152 39.7583 24.0012Z" fill="#FFCF2D"/>
<path d="M39.5293 1.96992C41.0013 1.95463 42.1169 3.05086 42.1322 4.52782C42.1476 6.00477 41.055 7.12396 39.583 7.13926C38.1109 7.15455 36.9953 6.05829 36.98 4.58134C36.9659 3.22746 38.1799 1.98394 39.5293 1.96992Z" fill="#FFCF2D"/>
<path d="M59.6357 177.784C61.1078 177.769 62.2233 178.865 62.2387 180.342C62.254 181.819 61.1615 182.938 59.6894 182.954C58.2173 182.969 57.1018 181.873 57.0864 180.396C57.0711 178.919 58.1636 177.8 59.6357 177.784Z" fill="#FFCF2D"/>
<path d="M59.4067 155.753C60.8788 155.738 61.9943 156.834 62.0097 158.311C62.025 159.788 60.9325 160.907 59.4604 160.922C57.9883 160.938 56.8728 159.841 56.8574 158.365C56.8434 157.011 57.9346 155.768 59.4067 155.753Z" fill="#FFCF2D"/>
<path d="M59.1792 133.845C60.6512 133.83 61.7668 134.926 61.7821 136.403C61.7975 137.88 60.7049 138.999 59.2329 139.014C57.7608 139.03 56.6452 137.933 56.6299 136.456C56.6145 134.979 57.7071 133.86 59.1792 133.845Z" fill="#FFCF2D"/>
<path d="M58.9502 111.814C60.4222 111.798 61.5378 112.895 61.5531 114.372C61.5685 115.849 60.4759 116.968 59.0039 116.983C57.5318 116.998 56.4162 115.902 56.4009 114.425C56.3855 112.948 57.4781 111.829 58.9502 111.814Z" fill="#FFCF2D"/>
<path d="M58.7216 89.7824C60.1937 89.7671 61.3093 90.8634 61.3246 92.3403C61.34 93.8173 60.2474 94.9365 58.7753 94.9518C57.3033 94.967 56.1877 93.8708 56.1724 92.3938C56.1583 91.04 57.2496 89.7977 58.7216 89.7824Z" fill="#FFCF2D"/>
<path d="M58.4926 67.7511C59.9647 67.7359 61.0803 68.8321 61.0956 70.3091C61.111 71.786 60.0184 72.9052 58.5463 72.9205C57.0743 72.9358 55.9587 71.8395 55.9434 70.3626C55.928 68.8856 57.0206 67.7664 58.4926 67.7511Z" fill="#FFCF2D"/>
<path d="M58.2651 45.8429C59.7372 45.8277 60.8527 46.9239 60.8681 48.4009C60.8834 49.8778 59.7909 50.997 58.3188 51.0123C56.8467 51.0276 55.7312 49.9313 55.7158 48.4544C55.7005 46.9774 56.793 45.8582 58.2651 45.8429Z" fill="#FFCF2D"/>
<path d="M58.0361 23.8117C59.5082 23.7964 60.6237 24.8927 60.6391 26.3696C60.6544 27.8466 59.5619 28.9658 58.0898 28.9811C56.6177 28.9963 55.5022 27.9001 55.4868 26.4231C55.4715 24.9462 56.564 23.827 58.0361 23.8117Z" fill="#FFCF2D"/>
<path d="M57.8076 1.77947C59.2797 1.76418 60.3952 2.86042 60.4106 4.33738C60.4259 5.81434 59.3334 6.93353 57.8613 6.94883C56.3892 6.96412 55.2736 5.86786 55.2583 4.3909C55.2442 3.03702 56.3355 1.79476 57.8076 1.77947Z" fill="#FFCF2D"/>
<path d="M4.92379 178.353C6.39586 178.337 7.51142 179.434 7.52676 180.911C7.5421 182.388 6.44956 183.507 4.97749 183.522C3.50542 183.537 2.38986 182.441 2.37452 180.964C2.35918 179.487 3.45172 178.368 4.92379 178.353Z" fill="#FFCF2D"/>
<path d="M4.69479 156.321C6.16686 156.306 7.28242 157.402 7.29776 158.879C7.3131 160.356 6.22055 161.476 4.74848 161.491C3.27642 161.506 2.16086 160.41 2.14551 158.933C2.13145 157.579 3.22272 156.337 4.69479 156.321Z" fill="#FFCF2D"/>
<path d="M4.46725 134.413C5.93932 134.398 7.05488 135.494 7.07022 136.971C7.08556 138.448 5.99301 139.567 4.52095 139.583C3.04888 139.598 1.93204 138.379 1.91798 137.025C1.90263 135.548 2.99518 134.429 4.46725 134.413Z" fill="#FFCF2D"/>
<path d="M4.23873 112.382C5.7108 112.367 6.82636 113.463 6.8417 114.94C6.85705 116.417 5.7645 117.536 4.29243 117.551C2.82036 117.567 1.70352 116.347 1.68946 114.993C1.6754 113.64 2.76666 112.397 4.23873 112.382Z" fill="#FFCF2D"/>
<path d="M4.00973 90.3508C5.4818 90.3355 6.59736 91.4317 6.6127 92.9087C6.62804 94.3856 5.5355 95.5048 4.06343 95.5201C2.59136 95.5354 1.4758 94.4392 1.46046 92.9622C1.44639 91.6083 2.53766 90.366 4.00973 90.3508Z" fill="#FFCF2D"/>
<path d="M3.78073 68.3195C5.25279 68.3042 6.36835 69.4005 6.3837 70.8774C6.39904 72.3544 5.30649 73.4736 3.83442 73.4889C2.36235 73.5042 1.24679 72.4079 1.23145 70.9309C1.21611 69.454 2.30866 68.3348 3.78073 68.3195Z" fill="#FFCF2D"/>
<path d="M3.55319 46.4113C5.02526 46.396 6.14081 47.4923 6.15616 48.9692C6.1715 50.4462 5.07895 51.5654 3.60688 51.5807C2.13481 51.596 1.01926 50.4997 1.00391 49.0227C0.988571 47.5458 2.08112 46.4266 3.55319 46.4113Z" fill="#FFCF2D"/>
<path d="M3.32418 24.38C4.79625 24.3648 5.91181 25.461 5.92715 26.938C5.94249 28.4149 4.84995 29.5341 3.37788 29.5494C1.90581 29.5647 0.790251 28.4685 0.774909 26.9915C0.759567 25.5145 1.85211 24.3953 3.32418 24.38Z" fill="#FFCF2D"/>
<path d="M3.09567 2.34785C4.56774 2.33256 5.68329 3.42879 5.69864 4.90575C5.71398 6.3827 4.62143 7.50189 3.14936 7.51719C1.67729 7.53248 0.561736 6.43622 0.546394 4.95927C0.53233 3.60539 1.6236 2.36314 3.09567 2.34785Z" fill="#FFCF2D"/>
<path d="M23.2021 178.163C24.6742 178.148 25.7897 179.244 25.8051 180.721C25.8204 182.198 24.6052 183.319 23.2558 183.333C21.7837 183.348 20.6682 182.252 20.6528 180.775C20.6375 179.298 21.73 178.179 23.2021 178.163Z" fill="#FFCF2D"/>
<path d="M22.9731 156.131C24.4452 156.116 25.5607 157.212 25.5761 158.689C25.5914 160.166 24.4989 161.285 23.0268 161.3C21.5547 161.316 20.4392 160.219 20.4238 158.742C20.4098 157.389 21.501 156.146 22.9731 156.131Z" fill="#FFCF2D"/>
<path d="M22.7456 134.224C24.2176 134.209 25.3332 135.305 25.3485 136.782C25.3639 138.259 24.2713 139.378 22.7993 139.393C21.3272 139.408 20.2116 138.312 20.1963 136.835C20.181 135.358 21.2735 134.239 22.7456 134.224Z" fill="#FFCF2D"/>
<path d="M22.5166 112.192C23.9886 112.176 25.1042 113.273 25.1195 114.749C25.1349 116.226 24.0423 117.346 22.5703 117.361C21.0982 117.376 19.9826 116.28 19.9673 114.803C19.9519 113.326 21.0445 112.207 22.5166 112.192Z" fill="#FFCF2D"/>
<path d="M22.2881 90.1603C23.7601 90.145 24.8757 91.2413 24.891 92.7182C24.9064 94.1952 23.8138 95.3144 22.3417 95.3297C20.8697 95.345 19.7541 94.2487 19.7388 92.7718C19.7247 91.4179 20.816 90.1756 22.2881 90.1603Z" fill="#FFCF2D"/>
<path d="M22.059 68.1291C23.5311 68.1138 24.6467 69.21 24.662 70.687C24.6774 72.164 23.5848 73.2831 22.1127 73.2984C20.6407 73.3137 19.5251 72.2175 19.5098 70.7405C19.4944 69.2636 20.587 68.1444 22.059 68.1291Z" fill="#FFCF2D"/>
<path d="M21.8315 46.2209C23.3036 46.2056 24.4191 47.3018 24.4345 48.7788C24.4498 50.2557 23.3573 51.3749 21.8852 51.3902C20.4131 51.4055 19.2976 50.3093 19.2822 48.8323C19.2669 47.3554 20.3594 46.2362 21.8315 46.2209Z" fill="#FFCF2D"/>
<path d="M21.6025 24.1896C23.0746 24.1743 24.1901 25.2706 24.2055 26.7475C24.2208 28.2245 23.1283 29.3437 21.6562 29.359C20.1841 29.3743 19.0686 28.278 19.0532 26.8011C19.0379 25.3241 20.1304 24.2049 21.6025 24.1896Z" fill="#FFCF2D"/>
<path d="M21.374 2.15838C22.8461 2.14309 23.9616 3.23933 23.977 4.71629C23.9923 6.19325 22.8998 7.31244 21.4277 7.32773C19.9556 7.34302 18.8401 6.24677 18.8247 4.76981C18.8107 3.41593 19.9019 2.17367 21.374 2.15838Z" fill="#FFCF2D"/>
<path d="M77.7915 177.596C79.2635 177.581 80.3791 178.677 80.3944 180.154C80.4098 181.631 79.3172 182.75 77.8452 182.765C76.3731 182.781 75.2575 181.684 75.2422 180.207C75.2269 178.73 76.4421 177.61 77.7915 177.596Z" fill="#FFCF2D"/>
<path d="M77.5625 155.565C79.0345 155.549 80.1501 156.646 80.1654 158.123C80.1808 159.6 79.0882 160.719 77.6162 160.734C76.1441 160.749 75.0285 159.653 75.0132 158.176C74.9991 156.822 76.2131 155.579 77.5625 155.565Z" fill="#FFCF2D"/>
<path d="M77.3349 133.656C78.807 133.641 79.9226 134.737 79.9379 136.214C79.9532 137.691 78.8607 138.81 77.3886 138.826C75.9166 138.841 74.801 137.745 74.7857 136.268C74.7703 134.791 75.9855 133.67 77.3349 133.656Z" fill="#FFCF2D"/>
<path d="M77.1059 111.625C78.578 111.61 79.6935 112.706 79.7089 114.183C79.7242 115.66 78.6317 116.779 77.1596 116.795C75.6875 116.81 74.572 115.714 74.5566 114.237C74.5413 112.76 75.7565 111.639 77.1059 111.625Z" fill="#FFCF2D"/>
<path d="M76.8774 89.5939C78.3495 89.5786 79.465 90.6749 79.4804 92.1518C79.4957 93.6288 78.4032 94.748 76.9311 94.7633C75.459 94.7786 74.3435 93.6823 74.3281 92.2054C74.3141 90.8515 75.528 89.6079 76.8774 89.5939Z" fill="#FFCF2D"/>
<path d="M76.6484 67.5617C78.1205 67.5464 79.236 68.6427 79.2514 70.1196C79.2667 71.5966 78.1742 72.7158 76.7021 72.7311C75.23 72.7463 74.1145 71.6501 74.0991 70.1731C74.0838 68.6962 75.299 67.5757 76.6484 67.5617Z" fill="#FFCF2D"/>
<path d="M76.4209 45.6545C77.8929 45.6392 79.0085 46.7354 79.0238 48.2124C79.0392 49.6893 77.9466 50.8085 76.4746 50.8238C75.0025 50.8391 73.8869 49.7429 73.8716 48.2659C73.8562 46.7889 75.0715 45.6685 76.4209 45.6545Z" fill="#FFCF2D"/>
<path d="M76.1919 23.6232C77.6639 23.6079 78.7795 24.7042 78.7948 26.1811C78.8102 27.6581 77.7176 28.7773 76.2456 28.7926C74.7735 28.8079 73.6579 27.7116 73.6426 26.2347C73.6272 24.7577 74.8425 23.6372 76.1919 23.6232Z" fill="#FFCF2D"/>
<path d="M75.9628 1.591C77.4349 1.57571 78.5505 2.67195 78.5658 4.1489C78.5812 5.62586 77.4886 6.74506 76.0165 6.76035C74.5445 6.77564 73.4289 5.67938 73.4136 4.20242C73.3995 2.84854 74.6135 1.60501 75.9628 1.591Z" fill="#FFCF2D"/>
<path d="M96.0693 177.406C97.5414 177.391 98.6569 178.487 98.6723 179.964C98.6876 181.441 97.5951 182.56 96.123 182.576C94.6509 182.591 93.5354 181.495 93.52 180.018C93.5047 178.541 94.5972 177.422 96.0693 177.406Z" fill="#FFCF2D"/>
<path d="M95.8403 155.374C97.3124 155.359 98.4279 156.455 98.4433 157.932C98.4586 159.409 97.3661 160.528 95.894 160.544C94.4219 160.559 93.3064 159.463 93.291 157.986C93.277 156.632 94.3682 155.389 95.8403 155.374Z" fill="#FFCF2D"/>
<path d="M95.6128 133.467C97.0848 133.452 98.2004 134.548 98.2157 136.025C98.2311 137.502 97.1385 138.621 95.6664 138.636C94.1944 138.652 93.0788 137.555 93.0635 136.078C93.0481 134.601 94.1407 133.482 95.6128 133.467Z" fill="#FFCF2D"/>
<path d="M97.9872 113.993C97.9724 112.565 96.807 111.42 95.3842 111.435C93.9615 111.45 92.8201 112.619 92.835 114.046C92.8498 115.474 94.0152 116.619 95.4379 116.604C96.8607 116.589 98.002 115.42 97.9872 113.993Z" fill="#FFCF2D"/>
<path d="M95.1552 89.4035C96.6273 89.3882 97.7428 90.4844 97.7582 91.9614C97.7735 93.4384 96.681 94.5576 95.2089 94.5728C93.7369 94.5881 92.6213 93.4919 92.606 92.0149C92.5919 90.661 93.6832 89.4188 95.1552 89.4035Z" fill="#FFCF2D"/>
<path d="M94.9262 67.3722C96.3983 67.3569 97.5139 68.4532 97.5292 69.9302C97.5445 71.4071 96.452 72.5263 94.9799 72.5416C93.5079 72.5569 92.3923 71.4606 92.377 69.9837C92.3616 68.5067 93.4542 67.3875 94.9262 67.3722Z" fill="#FFCF2D"/>
<path d="M94.6987 45.464C96.1708 45.4487 97.2863 46.545 97.3017 48.0219C97.317 49.4989 96.2245 50.6181 94.7524 50.6334C93.2803 50.6487 92.1648 49.5524 92.1494 48.0755C92.1341 46.5985 93.2266 45.4793 94.6987 45.464Z" fill="#FFCF2D"/>
<path d="M97.0731 25.9907C97.0583 24.5632 95.8929 23.418 94.4702 23.4328C93.0474 23.4476 91.9061 24.6167 91.9209 26.0442C91.9357 27.4717 93.1011 28.6169 94.5239 28.6021C95.9466 28.5874 97.088 27.4182 97.0731 25.9907Z" fill="#FFCF2D"/>
<path d="M94.2412 1.40154C95.7132 1.38625 96.8288 2.48249 96.8441 3.95945C96.8595 5.43641 95.7669 6.55561 94.2949 6.5709C92.8228 6.58619 91.7072 5.48993 91.6919 4.01297C91.6778 2.65909 92.7691 1.41683 94.2412 1.40154Z" fill="#FFCF2D"/>
<path d="M114.348 177.216C115.82 177.201 116.935 178.297 116.951 179.774C116.966 181.251 115.873 182.37 114.401 182.385C112.929 182.401 111.814 181.304 111.798 179.827C111.783 178.35 112.876 177.231 114.348 177.216Z" fill="#FFCF2D"/>
<path d="M114.119 155.185C115.591 155.169 116.706 156.266 116.722 157.743C116.737 159.22 115.644 160.339 114.172 160.354C112.7 160.369 111.585 159.273 111.569 157.796C111.555 156.442 112.647 155.2 114.119 155.185Z" fill="#FFCF2D"/>
<path d="M113.891 133.277C115.363 133.261 116.479 134.357 116.494 135.834C116.509 137.311 115.417 138.431 113.945 138.446C112.473 138.461 111.357 137.365 111.342 135.888C111.326 134.411 112.419 133.292 113.891 133.277Z" fill="#FFCF2D"/>
<path d="M113.663 111.245C115.135 111.23 116.25 112.326 116.266 113.803C116.281 115.28 115.188 116.399 113.716 116.415C112.244 116.43 111.129 115.334 111.113 113.857C111.098 112.38 112.191 111.261 113.663 111.245Z" fill="#FFCF2D"/>
<path d="M113.434 89.214C114.906 89.1987 116.021 90.295 116.037 91.772C116.052 93.2489 114.959 94.3681 113.487 94.3834C112.015 94.3987 110.9 93.3024 110.884 91.8255C110.87 90.4716 111.961 89.2293 113.434 89.214Z" fill="#FFCF2D"/>
<path d="M113.205 67.1828C114.677 67.1675 115.792 68.2638 115.808 69.7407C115.823 71.2177 114.73 72.3369 113.258 72.3521C111.786 72.3674 110.671 71.2712 110.655 69.7942C110.64 68.3173 111.732 67.1981 113.205 67.1828Z" fill="#FFCF2D"/>
<path d="M112.977 45.2746C114.449 45.2593 115.565 46.3555 115.58 47.8325C115.595 49.3095 114.503 50.4287 113.031 50.4439C111.559 50.4592 110.443 49.363 110.428 47.886C110.412 46.4091 111.505 45.2899 112.977 45.2746Z" fill="#FFCF2D"/>
<path d="M112.749 23.2433C114.221 23.228 115.336 24.3243 115.351 25.8013C115.367 27.2782 114.274 28.3974 112.802 28.4127C111.33 28.428 110.215 27.3317 110.199 25.8548C110.184 24.3778 111.276 23.2586 112.749 23.2433Z" fill="#FFCF2D"/>
<path d="M112.52 1.21209C113.992 1.1968 115.107 2.29304 115.122 3.77C115.138 5.24696 114.045 6.36615 112.573 6.38144C111.101 6.39673 109.986 5.30048 109.97 3.82352C109.956 2.46964 111.047 1.22738 112.52 1.21209Z" fill="#FFCF2D"/>
<path d="M132.503 177.028C133.975 177.012 135.091 178.108 135.106 179.585C135.122 181.062 134.029 182.182 132.557 182.197C131.085 182.212 129.969 181.116 129.954 179.639C129.939 178.162 131.154 177.042 132.503 177.028Z" fill="#FFCF2D"/>
<path d="M132.274 154.996C133.746 154.981 134.862 156.077 134.877 157.554C134.893 159.031 133.8 160.15 132.328 160.166C130.856 160.181 129.74 159.085 129.725 157.608C129.711 156.254 130.925 155.01 132.274 154.996Z" fill="#FFCF2D"/>
<path d="M132.047 133.088C133.519 133.073 134.634 134.169 134.65 135.646C134.665 137.123 133.573 138.242 132.101 138.257C130.628 138.273 129.513 137.176 129.498 135.7C129.482 134.223 130.697 133.102 132.047 133.088Z" fill="#FFCF2D"/>
<path d="M131.818 111.057C133.29 111.042 134.405 112.138 134.421 113.615C134.436 115.092 133.344 116.211 131.872 116.226C130.399 116.241 129.284 115.145 129.269 113.668C129.253 112.191 130.468 111.071 131.818 111.057Z" fill="#FFCF2D"/>
<path d="M131.589 89.0256C133.061 89.0103 134.176 90.1065 134.192 91.5835C134.207 93.0604 133.115 94.1796 131.643 94.1949C130.17 94.2102 129.055 93.114 129.04 91.637C129.025 90.2831 130.239 89.0396 131.589 89.0256Z" fill="#FFCF2D"/>
<path d="M131.36 66.9933C132.832 66.978 133.948 68.0743 133.963 69.5513C133.979 71.0282 132.886 72.1474 131.414 72.1627C129.942 72.178 128.826 71.0817 128.811 69.6048C128.796 68.1278 130.011 67.0074 131.36 66.9933Z" fill="#FFCF2D"/>
<path d="M131.133 45.0861C132.605 45.0708 133.72 46.1671 133.736 47.644C133.751 49.121 132.659 50.2402 131.186 50.2555C129.714 50.2708 128.599 49.1745 128.584 47.6975C128.568 46.2206 129.783 45.1001 131.133 45.0861Z" fill="#FFCF2D"/>
<path d="M130.904 23.0548C132.376 23.0396 133.491 24.1358 133.507 25.6128C133.522 27.0897 132.43 28.2089 130.957 28.2242C129.485 28.2395 128.37 27.1433 128.354 25.6663C128.339 24.1893 129.554 23.0689 130.904 23.0548Z" fill="#FFCF2D"/>
<path d="M130.675 1.02264C132.147 1.00735 133.262 2.10359 133.278 3.58054C133.293 5.0575 132.201 6.1767 130.728 6.19199C129.256 6.20728 128.141 5.11102 128.125 3.63406C128.111 2.28019 129.325 1.03665 130.675 1.02264Z" fill="#FFCF2D"/>
</g>
<defs>
<clipPath id="clip0_2234_9590">
<rect width="181.184" height="132.739" fill="white" transform="translate(2.40137 183.549) rotate(-90.5951)"/>
</clipPath>
</defs>
</svg>
